<svg xmlns="http://www.w3.org/2000/svg" width="503.699" height="428.069" viewBox="0 0 503.699 428.069">
  <g id="double-hearts" transform="translate(0.001 -37.814)">
    <g id="Gruppe_1674" data-name="Gruppe 1674">
      <g id="Gruppe_1673" data-name="Gruppe 1673">
        <path id="Pfad_863" data-name="Pfad 863" d="M395.364,37.814c-41.409,0-74.17,20.636-93.166,55.356-18.99-34.718-51.751-55.356-93.16-55.356-75.031,0-119.666,67.977-105.834,144.045A100.109,100.109,0,0,0,86.6,180.5C1.424,180.5-28.972,281.918,32.121,349.34c12.329,13.6,52.6,54.924,103.435,106.572a33.763,33.763,0,0,0,47.914,0c27.573-28.012,52-52.953,70.572-72.1,4.485,4.821,9.07,9.744,13.952,14.984,2.668,2.863,4.466,4.792,8.549,9.171l7.285,7.813a24.914,24.914,0,0,0,36.733.005c67.5-72.318,125.877-135.467,142.831-155.222C539.941,171.358,502.042,37.814,395.364,37.814ZM171.507,444.137a16.978,16.978,0,0,1-23.985,0c-50.549-51.354-90.871-92.731-102.961-106.07C-7.547,280.562,17.411,197.29,86.6,197.29a77.887,77.887,0,0,1,23.779,3.523,8.3,8.3,0,0,0,1.324.6c17.3,5.945,30.448,18.3,38.329,35.552.1.213.2.425.29.639.477,1.068.939,2.15,1.375,3.256a8.265,8.265,0,0,0,7.806,5.31,8.788,8.788,0,0,0,1.063-.073c.044-.005.089,0,.133-.009a8.224,8.224,0,0,0,6.61-5.224c10.9-27.553,33.749-43.577,65.108-43.577a75.341,75.341,0,0,1,23.81,3.69c48.351,16.04,62.649,81.117,23.521,130.808-1.671,2.122-3.429,4.22-5.3,6.281l-.373.41c-.227.249-.453.5-.7.765l-.416.453-.823.892-.516.557-.672.722c-5.02,5.389-12.694,13.42-22.834,23.913-.027.028-.049.058-.075.086C228.952,385.625,202.125,413.031,171.507,444.137ZM450.653,249.629c-16.718,19.48-75.168,82.707-142.363,154.7a8.131,8.131,0,0,1-12.191-.005l-7.277-7.8c-4.082-4.378-5.879-6.306-8.546-9.168-5.1-5.472-9.876-10.6-14.551-15.627,6.454-6.7,11.815-12.326,15.9-16.688l.838-.894.463-.5q1.434-1.537,2.606-2.814l.264-.289.833-.913.264-.289c1.31-1.445,2.562-2.911,3.788-4.387,47.032-56.585,32.743-134.2-22.487-157.539-1.915-.809-3.885-1.544-5.9-2.22-.194-.065-.381-.138-.576-.2a93.723,93.723,0,0,0-29.3-4.489h0c-.26,0-.516.009-.775.011-.74.005-1.48.01-2.212.031-1.806.05-3.586.153-5.348.294-.168.014-.339.022-.507.036-27.918,2.383-50.175,16.131-64.069,38.3a79.923,79.923,0,0,0-38.083-32.207C104.54,117.079,142.977,54.6,209.039,54.6c40.559,0,70.814,22.977,85.3,61.695a8.393,8.393,0,0,0,15.722,0c14.492-38.72,44.748-61.7,85.306-61.7C485.94,54.6,518.763,170.259,450.653,249.629Z" fill="#fff"/>
        <path id="Pfad_864" data-name="Pfad 864" d="M461.384,109.85c-10.978-23.882-32.665-38.462-66.02-38.462a8.393,8.393,0,1,0,0,16.786c26.649,0,42.47,10.636,50.767,28.686a8.393,8.393,0,0,0,15.253-7.01Z" fill="#fff"/>
      </g>
    </g>
  </g>
</svg>
