<svg xmlns="http://www.w3.org/2000/svg" width="512" height="435.274" viewBox="0 0 512 435.274">
  <g id="heart" transform="translate(0 -38.362)">
    <g id="Gruppe_1676" data-name="Gruppe 1676">
      <g id="Gruppe_1675" data-name="Gruppe 1675">
        <path id="Pfad_865" data-name="Pfad 865" d="M472.08,81.12a141.982,141.982,0,0,0-201.967-1.155L256.267,93.82,242.408,79.961A142,142,0,0,0,41.59,280.779L219.072,458.26a52.644,52.644,0,0,0,74.365,0L469.776,281.938C525.161,226.551,526.2,136.466,472.08,81.12Zm-20.9,182.226L274.845,439.671a26.321,26.321,0,0,1-37.181,0L60.181,262.186A115.707,115.707,0,1,1,223.816,98.551l13.866,13.866-21.233,21.249a13.146,13.146,0,1,0,18.6,18.584L288.7,98.55a115.689,115.689,0,0,1,164.573.95C497.374,144.6,496.433,218.1,451.183,263.346Z" fill="#fff"/>
      </g>
    </g>
    <g id="Gruppe_1678" data-name="Gruppe 1678">
      <g id="Gruppe_1677" data-name="Gruppe 1677">
        <path id="Pfad_866" data-name="Pfad 866" d="M466.29,174.4a96.041,96.041,0,0,0-69.917-86.524,13.146,13.146,0,0,0-7.046,25.33,69.747,69.747,0,0,1,50.723,62.813,13.147,13.147,0,0,0,13.109,12.336c.272,0,.547-.008.823-.026A13.14,13.14,0,0,0,466.29,174.4Z" fill="#fff"/>
      </g>
    </g>
  </g>
</svg>
