<?xml version="1.0" ?><svg style="enable-background:new 0 0 512 512;" version="1.1" viewBox="0 0 512 512" xml:space="preserve" xmlns="http://www.w3.org/2000/svg" xmlns:xlink="http://www.w3.org/1999/xlink"><style type="text/css">
	.st0{display:none;}
	.st1{fill:#FFE2D2;}
	.st2{fill:#FFDE83;}
	.st3{fill:#F57070;}
	.st4{fill:#DBDBEF;}
	.st5{fill:#BCE2FF;}
	.st6{fill:#48446D;}
	.st7{fill:#6E78FF;}
	.st8{fill:#FFBE83;}
	.st9{fill:#F5949E;}
	.st10{fill:#D0FF67;}
	.st11{fill:#C69C6D;}
	.st12{fill:#C5BDD3;}
	.st13{fill:#FFE2B8;}
	.st14{fill:#F54670;}
</style><g class="st0" id="Layer_1"/><g id="Layer_2"><g><path class="st3" d="M225.68,138.69c0.13,0,0.26,0.01,0.38,0.02c0.22,0.02,0.41,0.02,0.59,0.03l0.39,0.01    c0.4,0.02,0.81,0.04,1.2,0.03c0.3-0.01,0.6-0.03,0.91-0.05c0.46-0.03,0.85-0.05,1.24-0.1c0.3-0.04,0.61-0.08,0.91-0.13    c0.41-0.07,0.8-0.15,1.19-0.23c0.29-0.07,0.57-0.13,0.85-0.21c0.42-0.11,0.83-0.24,1.22-0.37l0.18-0.06    c0.2-0.06,0.39-0.13,0.59-0.2c0.42-0.16,0.83-0.34,1.23-0.52l0.36-0.16c0.11-0.04,0.22-0.09,0.32-0.14    c0.42-0.21,0.9-0.48,1.3-0.71c0.14-0.08,0.29-0.16,0.44-0.25l0.12-0.06c0.57-0.35,1.11-0.71,1.6-1.08    c0.05-0.04,0.1-0.08,0.15-0.12c0.49-0.38,0.99-0.8,1.51-1.28l0.05-0.06c0.12-0.12,0.24-0.24,0.36-0.35    c0.31-0.31,0.7-0.7,1.04-1.07c0.08-0.09,0.15-0.18,0.23-0.27l0.23-0.29c0.29-0.35,0.58-0.7,0.84-1.06    c0.14-0.18,0.27-0.38,0.39-0.57l0.06-0.08c0.25-0.37,0.48-0.73,0.7-1.1c0.14-0.23,0.28-0.49,0.42-0.75    c0.19-0.35,0.37-0.71,0.54-1.08c0.13-0.28,0.26-0.57,0.38-0.86c0.15-0.35,0.28-0.72,0.41-1.09s0.23-0.65,0.31-0.93    c0.12-0.37,0.21-0.77,0.3-1.16l0.09-0.39c0.05-0.18,0.1-0.37,0.13-0.55c0.03-0.12,0.05-0.25,0.09-0.39    c4.69-25.8,2.89-44.4-5.35-55.27c-3.46-4.56-8.48-7.5-14.14-8.27c-5.67-0.78-11.3,0.69-15.85,4.15    c-5.25,3.97-8.33,10.06-8.45,16.68c-0.04,2.15-1.06,4.15-2.77,5.45c-1.71,1.3-3.92,1.74-6,1.2c-6.41-1.67-13.1-0.35-18.35,3.63    c-4.55,3.45-7.49,8.48-8.27,14.14c-0.78,5.66,0.7,11.29,4.15,15.85C182.14,129.49,199.56,136.24,225.68,138.69z"/><path class="st3" d="M301.94,120.65l0.12,0.5c0.05,0.21,0.1,0.43,0.16,0.64c0.05,0.16,0.1,0.31,0.15,0.45    c0.1,0.28,0.17,0.48,0.25,0.68c0.07,0.16,0.14,0.32,0.22,0.48c0.09,0.21,0.19,0.4,0.3,0.6c0.08,0.16,0.16,0.29,0.23,0.42    c0.13,0.21,0.26,0.41,0.39,0.61l0.07,0.1c0.06,0.09,0.12,0.18,0.18,0.26c0.15,0.22,0.31,0.41,0.47,0.6l0.28,0.34    c0.16,0.18,0.36,0.38,0.56,0.57c0.09,0.09,0.19,0.18,0.28,0.28c0.29,0.27,0.56,0.49,0.83,0.69c0,0.01,0.01,0.02,0.02,0.02    c0.26,0.2,0.56,0.41,0.89,0.61l0.35,0.19c0.25,0.15,0.49,0.29,0.74,0.41l0.38,0.17c0.22,0.09,0.45,0.2,0.69,0.29    c0.1,0.04,0.22,0.07,0.34,0.11c0.31,0.1,0.53,0.17,0.75,0.23c0.15,0.04,0.32,0.08,0.48,0.12c0.21,0.05,0.43,0.09,0.65,0.12    c0.18,0.03,0.36,0.06,0.53,0.08c0.22,0.03,0.43,0.04,0.64,0.06c0.21,0.01,0.38,0.02,0.55,0.03c0.23,0,0.45-0.01,0.68-0.02    l0.26-0.01c0.09,0,0.18,0,0.27-0.01c0.12-0.01,0.22-0.02,0.31-0.02c16.5-1.56,27.87-5.87,32.88-12.49    c1.94-2.55,2.76-5.69,2.33-8.86c-0.44-3.17-2.08-5.98-4.63-7.91c-2.94-2.22-6.68-2.96-10.26-2.03c-2.08,0.55-4.29,0.1-6-1.19    c-1.71-1.3-2.73-3.31-2.77-5.45c-0.07-3.71-1.79-7.11-4.72-9.34c-2.55-1.93-5.69-2.76-8.86-2.32c-3.17,0.44-5.98,2.08-7.91,4.63    c-5.02,6.61-6.11,18.73-3.15,35.04C301.89,120.43,301.92,120.54,301.94,120.65z"/><path class="st4" d="M392.36,432.74l-98-122.32c-1-1.24-1.54-2.79-1.54-4.38V245c0-3.84,3.09-6.95,6.92-7h0.08    c0.14,0,0.28,0,0.42,0.02c0.17,0.01,0.33,0.03,0.5,0.05v-14.5h-81.56v82.47c0,1.59-0.54,3.14-1.54,4.38l-98,122.32    c-3.33,4.15-3.94,9.49-1.63,14.29c2.3,4.79,6.85,7.66,12.17,7.66h251.64c5.32,0,9.87-2.87,12.17-7.66    C396.3,442.23,395.69,436.89,392.36,432.74z M275.9,324.77c0.25-0.38,0.55-0.74,0.87-1.06c1.63-1.63,4.04-2.38,6.32-1.92    c0.44,0.09,0.88,0.23,1.31,0.4c0.42,0.18,0.83,0.39,1.2,0.65c0.39,0.25,0.75,0.54,1.07,0.87c0.32,0.32,0.61,0.68,0.87,1.06    c0.25,0.38,0.47,0.79,0.64,1.21c0.18,0.42,0.31,0.86,0.4,1.31c0.09,0.45,0.14,0.91,0.14,1.37c0,0.45-0.05,0.91-0.14,1.36    c-0.09,0.45-0.22,0.89-0.4,1.31c-0.17,0.43-0.39,0.83-0.64,1.21c-0.26,0.39-0.55,0.74-0.87,1.07c-0.32,0.32-0.68,0.61-1.07,0.87    c-0.37,0.25-0.78,0.47-1.2,0.64c-0.43,0.18-0.87,0.31-1.31,0.4c-0.46,0.09-0.92,0.14-1.37,0.14c-1.84,0-3.65-0.75-4.95-2.05    c-0.32-0.33-0.62-0.68-0.87-1.07c-0.25-0.38-0.47-0.78-0.65-1.21c-0.17-0.42-0.31-0.86-0.4-1.31c-0.09-0.45-0.13-0.91-0.13-1.36    c0-0.46,0.04-0.92,0.13-1.37c0.09-0.45,0.23-0.89,0.4-1.31C275.43,325.56,275.65,325.15,275.9,324.77z M263.04,299.5    c0.32-0.32,0.68-0.61,1.06-0.87c0.38-0.25,0.79-0.47,1.21-0.64c0.42-0.18,0.87-0.31,1.31-0.4c0.9-0.18,1.84-0.18,2.74,0    c0.44,0.09,0.88,0.22,1.31,0.4c0.42,0.17,0.83,0.39,1.2,0.64c0.39,0.26,0.75,0.55,1.07,0.87c1.3,1.3,2.05,3.11,2.05,4.95    c0,1.84-0.75,3.65-2.05,4.95c-0.32,0.32-0.68,0.62-1.07,0.87c-0.37,0.25-0.78,0.47-1.2,0.65c-0.43,0.17-0.87,0.31-1.31,0.39    c-0.45,0.1-0.91,0.14-1.37,0.14s-0.92-0.04-1.37-0.14c-0.44-0.08-0.89-0.22-1.31-0.39c-0.42-0.18-0.83-0.4-1.21-0.65    c-0.38-0.25-0.74-0.55-1.06-0.87c-1.3-1.3-2.05-3.1-2.05-4.95C260.99,302.61,261.74,300.8,263.04,299.5z M234.93,299.83    c0.09-0.44,0.23-0.89,0.4-1.31c0.18-0.42,0.39-0.83,0.65-1.21c0.25-0.38,0.54-0.74,0.87-1.06c1.3-1.3,3.11-2.05,4.95-2.05    s3.64,0.75,4.95,2.05c0.32,0.32,0.61,0.68,0.87,1.06c0.25,0.38,0.46,0.79,0.64,1.21c0.18,0.42,0.31,0.87,0.4,1.31    c0.09,0.45,0.14,0.91,0.14,1.37s-0.05,0.92-0.14,1.37c-0.09,0.44-0.22,0.88-0.4,1.31c-0.18,0.42-0.39,0.83-0.64,1.21    c-0.26,0.38-0.55,0.74-0.87,1.06c-1.31,1.3-3.11,2.05-4.95,2.05c-1.85,0-3.65-0.75-4.95-2.05c-0.33-0.32-0.62-0.68-0.87-1.06    c-0.26-0.38-0.47-0.79-0.65-1.21c-0.17-0.43-0.31-0.87-0.4-1.31c-0.09-0.45-0.13-0.91-0.13-1.37S234.84,300.28,234.93,299.83z     M236.85,328.4c0.32-0.32,0.68-0.61,1.06-0.87c0.38-0.25,0.79-0.47,1.21-0.64c0.42-0.18,0.86-0.31,1.31-0.4    c2.28-0.46,4.69,0.29,6.32,1.91c1.3,1.31,2.05,3.11,2.05,4.95c0,0.46-0.05,0.92-0.14,1.37c-0.09,0.45-0.22,0.89-0.4,1.31    c-0.18,0.42-0.39,0.83-0.64,1.21c-0.26,0.38-0.55,0.74-0.87,1.06c-1.31,1.31-3.11,2.05-4.95,2.05c-0.46,0-0.92-0.04-1.37-0.13    c-0.45-0.09-0.89-0.23-1.31-0.4c-0.42-0.18-0.83-0.4-1.21-0.65c-0.38-0.25-0.74-0.54-1.06-0.87c-0.33-0.32-0.62-0.68-0.87-1.06    s-0.47-0.79-0.65-1.21c-0.17-0.42-0.31-0.86-0.4-1.31c-0.09-0.45-0.13-0.91-0.13-1.37C234.8,331.51,235.54,329.71,236.85,328.4z     M364.18,432.71c-2.48,5.17-7.59,8.38-13.33,8.38h-189.7c-5.74,0-10.85-3.21-13.33-8.38s-1.8-11.17,1.79-15.64l17.21-21.48    c2.33-2.9,6.48-3.46,9.48-1.35l6.36-8.33c-0.02-0.02-0.04-0.03-0.06-0.05c-0.32-0.32-0.61-0.68-0.87-1.07    c-0.25-0.37-0.46-0.78-0.64-1.2c-0.17-0.43-0.31-0.87-0.4-1.31c-0.09-0.45-0.14-0.91-0.14-1.37c0-1.84,0.75-3.65,2.05-4.95    c1.63-1.62,4.04-2.37,6.32-1.91c0.45,0.09,0.89,0.22,1.31,0.4c0.29,0.12,0.58,0.27,0.85,0.43l5.2-6.81    c-2.2-2.51-2.36-6.3-0.2-8.99c3.64-4.56,9.08-7.17,14.91-7.17h90.02c5.83,0,11.27,2.61,14.91,7.17l46.47,57.99    C365.98,421.54,366.66,427.54,364.18,432.71z"/><path class="st7" d="M312.77,200.31c0,2.48-0.96,4.8-2.72,6.55c-1.74,1.75-4.06,2.71-6.54,2.71h-95.02    c-5.11,0-9.26-4.15-9.26-9.26c0-2.47,0.96-4.79,2.72-6.55c1.74-1.74,4.06-2.71,6.54-2.71h95.02    C308.62,191.05,312.77,195.21,312.77,200.31z"/><path class="st6" d="M403.29,423.99l-96.47-120.41V245c0-3.56-2.65-6.48-6.08-6.93c-0.17-0.02-0.33-0.04-0.5-0.05    c-0.14-0.02-0.28-0.02-0.42-0.02h-0.08c-3.83,0.05-6.92,3.16-6.92,7v61.04c0,1.59,0.54,3.14,1.54,4.38l98,122.32    c3.33,4.15,3.94,9.49,1.63,14.29c-2.3,4.79-6.85,7.66-12.17,7.66H130.18c-5.32,0-9.87-2.87-12.17-7.66    c-2.31-4.8-1.7-10.14,1.63-14.29l98-122.32c1-1.24,1.54-2.79,1.54-4.38v-82.47h84.33c6.23,0,12.07-2.42,16.44-6.81    c4.4-4.38,6.82-10.22,6.82-16.45c0-12.82-10.43-23.26-23.26-23.26h-95.02c-6.23,0-12.07,2.43-16.44,6.81    c-4.4,4.39-6.82,10.23-6.82,16.45c0,11.7,8.69,21.41,19.95,23.02v80.25l-96.47,120.41c-6.67,8.33-7.95,19.48-3.32,29.1    c4.62,9.62,14.12,15.6,24.79,15.6h251.64c10.67,0,20.17-5.98,24.79-15.6C411.24,443.47,409.96,432.32,403.29,423.99z     M199.23,200.31c0-2.47,0.96-4.79,2.72-6.55c1.74-1.74,4.06-2.71,6.54-2.71h95.02c5.11,0,9.26,4.16,9.26,9.26    c0,2.48-0.96,4.8-2.72,6.55c-1.74,1.75-4.06,2.71-6.54,2.71h-95.02C203.38,209.57,199.23,205.42,199.23,200.31z"/><path class="st6" d="M364.18,432.71c-2.48,5.17-7.59,8.38-13.33,8.38h-189.7c-5.74,0-10.85-3.21-13.33-8.38s-1.8-11.17,1.79-15.64    l17.21-21.48c2.33-2.9,6.48-3.46,9.48-1.35c0.12,0.08,0.25,0.17,0.36,0.26c0.15,0.12,0.28,0.24,0.42,0.37    c2.63,2.48,2.97,6.6,0.67,9.47l-17.21,21.48c-0.1,0.13-0.31,0.39-0.1,0.83c0.22,0.44,0.55,0.44,0.71,0.44h189.7    c0.16,0,0.49,0,0.71-0.44c0.21-0.44,0-0.7-0.1-0.83L305,367.83c-0.98-1.22-2.43-1.92-3.99-1.92h-90.02c-1.56,0-3.01,0.7-3.99,1.92    c-2.41,3.02-6.82,3.5-9.84,1.09c-0.05-0.05-0.1-0.1-0.16-0.15c-0.26-0.22-0.5-0.45-0.72-0.7c-2.2-2.51-2.36-6.3-0.2-8.99    c3.64-4.56,9.08-7.17,14.91-7.17h90.02c5.83,0,11.27,2.61,14.91,7.17l46.47,57.99C365.98,421.54,366.66,427.54,364.18,432.71z"/><path class="st6" d="M194.55,380.91c0,0.46-0.04,0.92-0.13,1.37c-0.09,0.44-0.23,0.88-0.4,1.31c-0.18,0.42-0.4,0.83-0.65,1.2    c-0.25,0.39-0.55,0.75-0.87,1.07s-0.68,0.61-1.06,0.87c-0.38,0.25-0.79,0.47-1.21,0.64c-0.42,0.18-0.86,0.31-1.31,0.4    c-0.45,0.09-0.91,0.14-1.37,0.14c-1.48,0-2.93-0.49-4.12-1.36c-0.27-0.19-0.53-0.4-0.77-0.64c-0.02-0.02-0.04-0.03-0.06-0.05    c-0.32-0.32-0.61-0.68-0.87-1.07c-0.25-0.37-0.46-0.78-0.64-1.2c-0.17-0.43-0.31-0.87-0.4-1.31c-0.09-0.45-0.14-0.91-0.14-1.37    c0-1.84,0.75-3.65,2.05-4.95c1.63-1.62,4.04-2.37,6.32-1.91c0.45,0.09,0.89,0.22,1.31,0.4c0.29,0.12,0.58,0.27,0.85,0.43    c0.12,0.07,0.24,0.13,0.36,0.21c0.16,0.11,0.32,0.23,0.47,0.35c0.21,0.17,0.41,0.34,0.59,0.52    C193.81,377.26,194.55,379.07,194.55,380.91z"/><path class="st6" d="M274.99,304.45c0,1.84-0.75,3.65-2.05,4.95c-0.32,0.32-0.68,0.62-1.07,0.87c-0.37,0.25-0.78,0.47-1.2,0.65    c-0.43,0.17-0.87,0.31-1.31,0.39c-0.45,0.1-0.91,0.14-1.37,0.14s-0.92-0.04-1.37-0.14c-0.44-0.08-0.89-0.22-1.31-0.39    c-0.42-0.18-0.83-0.4-1.21-0.65c-0.38-0.25-0.74-0.55-1.06-0.87c-1.3-1.3-2.05-3.1-2.05-4.95c0-1.84,0.75-3.65,2.05-4.95    c0.32-0.32,0.68-0.61,1.06-0.87c0.38-0.25,0.79-0.47,1.21-0.64c0.42-0.18,0.87-0.31,1.31-0.4c0.9-0.18,1.84-0.18,2.74,0    c0.44,0.09,0.88,0.22,1.31,0.4c0.42,0.17,0.83,0.39,1.2,0.64c0.39,0.26,0.75,0.55,1.07,0.87    C274.24,300.8,274.99,302.61,274.99,304.45z"/><path class="st6" d="M248.8,301.2c0,0.46-0.05,0.92-0.14,1.37c-0.09,0.44-0.22,0.88-0.4,1.31c-0.18,0.42-0.39,0.83-0.64,1.21    c-0.26,0.38-0.55,0.74-0.87,1.06c-1.31,1.3-3.11,2.05-4.95,2.05c-1.85,0-3.65-0.75-4.95-2.05c-0.33-0.32-0.62-0.68-0.87-1.06    c-0.26-0.38-0.47-0.79-0.65-1.21c-0.17-0.43-0.31-0.87-0.4-1.31c-0.09-0.45-0.13-0.91-0.13-1.37s0.04-0.92,0.13-1.37    c0.09-0.44,0.23-0.89,0.4-1.31c0.18-0.42,0.39-0.83,0.65-1.21c0.25-0.38,0.54-0.74,0.87-1.06c1.3-1.3,3.11-2.05,4.95-2.05    s3.64,0.75,4.95,2.05c0.32,0.32,0.61,0.68,0.87,1.06c0.25,0.38,0.46,0.79,0.64,1.21c0.18,0.42,0.31,0.87,0.4,1.31    C248.75,300.28,248.8,300.74,248.8,301.2z"/><path class="st6" d="M248.8,333.35c0,0.46-0.05,0.92-0.14,1.37c-0.09,0.45-0.22,0.89-0.4,1.31c-0.18,0.42-0.39,0.83-0.64,1.21    c-0.26,0.38-0.55,0.74-0.87,1.06c-1.31,1.31-3.11,2.05-4.95,2.05c-0.46,0-0.92-0.04-1.37-0.13c-0.45-0.09-0.89-0.23-1.31-0.4    c-0.42-0.18-0.83-0.4-1.21-0.65c-0.38-0.25-0.74-0.54-1.06-0.87c-0.33-0.32-0.62-0.68-0.87-1.06s-0.47-0.79-0.65-1.21    c-0.17-0.42-0.31-0.86-0.4-1.31c-0.09-0.45-0.13-0.91-0.13-1.37c0-1.84,0.74-3.64,2.05-4.95c0.32-0.32,0.68-0.61,1.06-0.87    c0.38-0.25,0.79-0.47,1.21-0.64c0.42-0.18,0.86-0.31,1.31-0.4c2.28-0.46,4.69,0.29,6.32,1.91    C248.05,329.71,248.8,331.51,248.8,333.35z"/><path class="st6" d="M288.72,328.66c0,0.45-0.05,0.91-0.14,1.36c-0.09,0.45-0.22,0.89-0.4,1.31c-0.17,0.43-0.39,0.83-0.64,1.21    c-0.26,0.39-0.55,0.74-0.87,1.07c-0.32,0.32-0.68,0.61-1.07,0.87c-0.37,0.25-0.78,0.47-1.2,0.64c-0.43,0.18-0.87,0.31-1.31,0.4    c-0.46,0.09-0.92,0.14-1.37,0.14c-1.84,0-3.65-0.75-4.95-2.05c-0.32-0.33-0.62-0.68-0.87-1.07c-0.25-0.38-0.47-0.78-0.65-1.21    c-0.17-0.42-0.31-0.86-0.4-1.31c-0.09-0.45-0.13-0.91-0.13-1.36c0-0.46,0.04-0.92,0.13-1.37c0.09-0.45,0.23-0.89,0.4-1.31    c0.18-0.42,0.4-0.83,0.65-1.21c0.25-0.38,0.55-0.74,0.87-1.06c1.63-1.63,4.04-2.38,6.32-1.92c0.44,0.09,0.88,0.23,1.31,0.4    c0.42,0.18,0.83,0.39,1.2,0.65c0.39,0.25,0.75,0.54,1.07,0.87c0.32,0.32,0.61,0.68,0.87,1.06c0.25,0.38,0.47,0.79,0.64,1.21    c0.18,0.42,0.31,0.86,0.4,1.31C288.67,327.74,288.72,328.2,288.72,328.66z"/><path class="st6" d="M284.69,150.82c-0.45,0.09-0.89,0.22-1.31,0.4c-0.43,0.17-0.83,0.39-1.21,0.64    c-0.39,0.25-0.74,0.55-1.07,0.87c-0.32,0.32-0.61,0.68-0.87,1.06c-0.25,0.38-0.47,0.79-0.64,1.21c-0.18,0.42-0.31,0.87-0.4,1.31    c-0.09,0.45-0.14,0.91-0.14,1.37c0,0.46,0.05,0.92,0.14,1.37c0.09,0.44,0.22,0.88,0.4,1.31c0.17,0.42,0.39,0.83,0.64,1.21    c0.26,0.38,0.55,0.74,0.87,1.06c0.33,0.32,0.68,0.61,1.07,0.87c0.38,0.25,0.78,0.47,1.21,0.64c0.42,0.18,0.86,0.31,1.31,0.4    c0.45,0.09,0.91,0.14,1.36,0.14c1.84,0,3.65-0.75,4.95-2.05c0.33-0.32,0.62-0.68,0.87-1.06c0.25-0.38,0.47-0.79,0.65-1.21    c0.17-0.43,0.31-0.87,0.4-1.31c0.09-0.45,0.13-0.91,0.13-1.37c0-0.46-0.04-0.92-0.13-1.37c-0.09-0.44-0.23-0.89-0.4-1.31    c-0.18-0.42-0.4-0.83-0.65-1.21c-0.25-0.38-0.54-0.74-0.87-1.06c-0.32-0.32-0.68-0.62-1.06-0.87c-0.38-0.25-0.79-0.47-1.21-0.64    c-0.42-0.18-0.86-0.31-1.31-0.4C286.52,150.63,285.59,150.63,284.69,150.82z"/><path class="st6" d="M288.22,123.44c0.05,0.26,0.11,0.51,0.18,0.77l0.04,0.18c0.11,0.48,0.23,0.96,0.37,1.41    c0.11,0.37,0.23,0.73,0.37,1.13c0.16,0.46,0.33,0.91,0.51,1.35c0.14,0.35,0.3,0.69,0.45,1.02c0.22,0.46,0.44,0.91,0.66,1.32    c0.17,0.32,0.35,0.63,0.53,0.94c0.26,0.45,0.54,0.88,0.84,1.32l0.06,0.09c0.16,0.24,0.32,0.48,0.48,0.7    c0.33,0.44,0.67,0.87,1.04,1.31l0.08,0.1c0.15,0.19,0.31,0.37,0.48,0.56c0.4,0.45,0.82,0.88,1.27,1.32    c0.16,0.16,0.32,0.32,0.48,0.47c0.65,0.6,1.28,1.12,1.92,1.61c0.01,0.01,0.01,0.01,0.02,0.01c0.64,0.49,1.33,0.96,2.06,1.41    c0.19,0.12,0.39,0.23,0.61,0.35c0.52,0.3,1.04,0.59,1.61,0.87c0.21,0.1,0.43,0.2,0.65,0.29l0.14,0.07    c0.5,0.22,0.99,0.43,1.51,0.63c0.3,0.11,0.59,0.21,0.92,0.31c0.49,0.17,0.99,0.32,1.5,0.46c0.34,0.08,0.68,0.17,1.03,0.24    c0.47,0.11,0.95,0.2,1.43,0.28c0.38,0.06,0.75,0.12,1.13,0.16c0.47,0.06,0.95,0.1,1.4,0.13c0.4,0.02,0.81,0.05,1.22,0.05    c0.09,0.01,0.18,0.01,0.27,0.01c0.39,0,0.78-0.02,1.17-0.03l0.17-0.01c0.29-0.01,0.57-0.02,0.82-0.03    c0.14-0.01,0.29-0.02,0.44-0.03c20.9-1.95,35.34-8,42.92-17.99c8.65-11.41,6.41-27.73-5-36.39c-4.33-3.27-9.45-5.07-14.72-5.25    c-1.6-5.03-4.71-9.47-9.03-12.75c-4.69-3.55-10.2-5.27-15.67-5.27c-7.85,0-15.62,3.54-20.72,10.27c-7.57,9.99-9.5,25.53-5.73,46.2    C288.16,123.16,288.18,123.3,288.22,123.44z M305.02,85.29c1.93-2.55,4.74-4.19,7.91-4.63c3.17-0.44,6.31,0.39,8.86,2.32    c2.93,2.23,4.65,5.63,4.72,9.34c0.04,2.14,1.06,4.15,2.77,5.45c1.71,1.29,3.92,1.74,6,1.19c3.58-0.93,7.32-0.19,10.26,2.03    c2.55,1.93,4.19,4.74,4.63,7.91c0.43,3.17-0.39,6.31-2.33,8.86c-5.01,6.62-16.38,10.93-32.88,12.49c-0.09,0-0.19,0.01-0.31,0.02    c-0.09,0.01-0.18,0.01-0.27,0.01l-0.26,0.01c-0.23,0.01-0.45,0.02-0.68,0.02c-0.17-0.01-0.34-0.02-0.55-0.03    c-0.21-0.02-0.42-0.03-0.64-0.06c-0.17-0.02-0.35-0.05-0.53-0.08c-0.22-0.03-0.44-0.07-0.65-0.12c-0.16-0.04-0.33-0.08-0.48-0.12    c-0.22-0.06-0.44-0.13-0.75-0.23c-0.12-0.04-0.24-0.07-0.34-0.11c-0.24-0.09-0.47-0.2-0.69-0.29l-0.38-0.17    c-0.25-0.12-0.49-0.26-0.74-0.41l-0.35-0.19c-0.33-0.2-0.63-0.41-0.89-0.61c-0.01,0-0.02-0.01-0.02-0.02    c-0.27-0.2-0.54-0.42-0.83-0.69c-0.09-0.1-0.19-0.19-0.28-0.28c-0.2-0.19-0.4-0.39-0.56-0.57l-0.28-0.34    c-0.16-0.19-0.32-0.38-0.47-0.6c-0.06-0.08-0.12-0.17-0.18-0.26l-0.07-0.1c-0.13-0.2-0.26-0.4-0.39-0.61    c-0.07-0.13-0.15-0.26-0.23-0.42c-0.11-0.2-0.21-0.39-0.3-0.6c-0.08-0.16-0.15-0.32-0.22-0.48c-0.08-0.2-0.15-0.4-0.25-0.68    c-0.05-0.14-0.1-0.29-0.15-0.45c-0.06-0.21-0.11-0.43-0.16-0.64l-0.12-0.5c-0.02-0.11-0.05-0.22-0.07-0.32    C298.91,104.02,300,91.9,305.02,85.29z"/><path class="st6" d="M224.56,152.64c0.17,0.02,0.34,0.03,0.51,0.04c0.38,0.02,0.76,0.04,1.14,0.05l0.29,0.01    c0.54,0.02,1.08,0.04,1.62,0.04h0.36c0.53-0.01,1.05-0.04,1.64-0.08c0.64-0.04,1.28-0.09,1.92-0.17c0.52-0.06,1.04-0.14,1.55-0.22    c0.66-0.11,1.31-0.24,1.96-0.38c0.47-0.11,0.95-0.22,1.41-0.34c0.67-0.18,1.34-0.39,2.02-0.61l0.18-0.06    c0.36-0.12,0.72-0.25,1.08-0.38c0.79-0.3,1.51-0.61,2.06-0.86l0.22-0.1c0.29-0.12,0.58-0.25,0.88-0.4    c0.81-0.39,1.55-0.81,2.16-1.17l0.12-0.06c0.25-0.14,0.49-0.27,0.73-0.42c1.03-0.63,1.95-1.26,2.82-1.92c0-0.01,0-0.01,0.01-0.01    c0.87-0.67,1.73-1.38,2.63-2.21c0.19-0.18,0.38-0.37,0.56-0.56l0.1-0.09c0.47-0.47,1.1-1.09,1.72-1.79    c0.22-0.24,0.42-0.48,0.63-0.73l0.15-0.19c0.38-0.45,0.88-1.07,1.38-1.75c0.25-0.34,0.48-0.68,0.76-1.1    c0.39-0.58,0.77-1.17,1.14-1.79c0.24-0.41,0.47-0.82,0.7-1.24c0.32-0.59,0.62-1.2,0.9-1.81c0.22-0.46,0.43-0.93,0.63-1.41    c0.24-0.6,0.47-1.21,0.71-1.9c0.17-0.48,0.34-0.97,0.49-1.47c0.19-0.63,0.34-1.28,0.5-1.92l0.07-0.29    c0.08-0.35,0.17-0.71,0.25-1.09c0.04-0.16,0.07-0.32,0.11-0.51c5.46-29.92,2.79-52.27-7.94-66.42    c-5.71-7.54-14.02-12.4-23.39-13.68c-9.37-1.29-18.68,1.15-26.21,6.86c-6.58,4.99-11.1,11.96-12.99,19.8    c-8.06-0.28-16,2.18-22.57,7.16c-7.54,5.72-12.4,14.02-13.69,23.39c-1.29,9.37,1.15,18.68,6.87,26.22    C173.47,141.23,194.27,149.83,224.56,152.64z M169.75,102.77c0.78-5.66,3.72-10.69,8.27-14.14c5.25-3.98,11.94-5.3,18.35-3.63    c2.08,0.54,4.29,0.1,6-1.2c1.71-1.3,2.73-3.3,2.77-5.45c0.12-6.62,3.2-12.71,8.45-16.68c4.55-3.46,10.18-4.93,15.85-4.15    c5.66,0.77,10.68,3.71,14.14,8.27c8.24,10.87,10.04,29.47,5.35,55.27c-0.04,0.14-0.06,0.27-0.09,0.39    c-0.03,0.18-0.08,0.37-0.13,0.55l-0.09,0.39c-0.09,0.39-0.18,0.79-0.3,1.16c-0.08,0.28-0.18,0.56-0.31,0.93s-0.26,0.74-0.41,1.09    c-0.12,0.29-0.25,0.58-0.38,0.86c-0.17,0.37-0.35,0.73-0.54,1.08c-0.14,0.26-0.28,0.52-0.42,0.75c-0.22,0.37-0.45,0.73-0.7,1.1    l-0.06,0.08c-0.12,0.19-0.25,0.39-0.39,0.57c-0.26,0.36-0.55,0.71-0.84,1.06l-0.23,0.29c-0.08,0.09-0.15,0.18-0.23,0.27    c-0.34,0.37-0.73,0.76-1.04,1.07c-0.12,0.11-0.24,0.23-0.36,0.35l-0.05,0.06c-0.52,0.48-1.02,0.9-1.51,1.28    c-0.05,0.04-0.1,0.08-0.15,0.12c-0.49,0.37-1.03,0.73-1.6,1.08l-0.12,0.06c-0.15,0.09-0.3,0.17-0.44,0.25    c-0.4,0.23-0.88,0.5-1.3,0.71c-0.1,0.05-0.21,0.1-0.32,0.14l-0.36,0.16c-0.4,0.18-0.81,0.36-1.23,0.52    c-0.2,0.07-0.39,0.14-0.59,0.2l-0.18,0.06c-0.39,0.13-0.8,0.26-1.22,0.37c-0.28,0.08-0.56,0.14-0.85,0.21    c-0.39,0.08-0.78,0.16-1.19,0.23c-0.3,0.05-0.61,0.09-0.91,0.13c-0.39,0.05-0.78,0.07-1.24,0.1c-0.31,0.02-0.61,0.04-0.91,0.05    c-0.39,0.01-0.8-0.01-1.2-0.03l-0.39-0.01c-0.18-0.01-0.37-0.01-0.59-0.03c-0.12-0.01-0.25-0.02-0.38-0.02    c-26.12-2.45-43.54-9.2-51.78-20.07C170.45,114.06,168.97,108.43,169.75,102.77z"/><path class="st3" d="M351.56,426.65c-0.22,0.44-0.55,0.44-0.71,0.44h-189.7c-0.16,0-0.49,0-0.71-0.44c-0.21-0.44,0-0.7,0.1-0.83    l17.21-21.48c2.3-2.87,1.96-6.99-0.67-9.47c-0.14-0.13-0.27-0.25-0.42-0.37c-0.11-0.09-0.24-0.18-0.36-0.26l6.36-8.33    c0.24,0.24,0.5,0.45,0.77,0.64c1.19,0.87,2.64,1.36,4.12,1.36c0.46,0,0.92-0.05,1.37-0.14c0.45-0.09,0.89-0.22,1.31-0.4    c0.42-0.17,0.83-0.39,1.21-0.64c0.38-0.26,0.74-0.55,1.06-0.87s0.62-0.68,0.87-1.07c0.25-0.37,0.47-0.78,0.65-1.2    c0.17-0.43,0.31-0.87,0.4-1.31c0.09-0.45,0.13-0.91,0.13-1.37c0-1.84-0.74-3.65-2.05-4.95c-0.18-0.18-0.38-0.35-0.59-0.52    c-0.15-0.12-0.31-0.24-0.47-0.35c-0.12-0.08-0.24-0.14-0.36-0.21l5.2-6.81c0.22,0.25,0.46,0.48,0.72,0.7    c0.06,0.05,0.11,0.1,0.16,0.15c3.02,2.41,7.43,1.93,9.84-1.09c0.98-1.22,2.43-1.92,3.99-1.92h90.02c1.56,0,3.01,0.7,3.99,1.92    l46.46,57.99C351.56,425.95,351.77,426.21,351.56,426.65z"/></g></g></svg>