<?xml version="1.0" ?><svg id="Layer_1" style="enable-background:new 0 0 128 128;" version="1.1" viewBox="0 0 128 128" xml:space="preserve" xmlns="http://www.w3.org/2000/svg" xmlns:xlink="http://www.w3.org/1999/xlink"><style type="text/css">
	.st0{fill:#FF5050;}
	.st1{fill:#FFFFFF;}
	.st2{fill:#9B0270;}
	.st3{fill:#FFD952;}
	.st4{fill:#FF9D00;}
	.st5{fill:#DFE8F4;}
	.st6{fill:#52EFBB;}
	.st7{fill:#33BC8B;}
	.st8{fill:#0795FF;}
	.st9{fill:#500599;}
	.st10{fill:#4D28A8;}
	.st11{fill:#35DC86;}
	.st12{fill:#27A88F;}
</style><g><polygon class="st0" points="114,34 114,24 104,24 104,14 74,14 74,24 64,24 54,24 54,14 24,14 24,24 14,24 14,34 4,34 4,64 14,64    14,74 24,74 24,84 34,84 34,94 44,94 44,104 54,104 54,114 64,114 124,54 124,34  "/></g><g><rect class="st1" height="10" width="10" x="24" y="34"/></g><g><g><rect class="st2" height="10" width="10" x="64" y="104"/></g><g><rect class="st2" height="10" width="10" x="74" y="94"/></g><g><rect class="st2" height="10" width="10" x="84" y="84"/></g><g><rect class="st2" height="10" width="10" x="94" y="74"/></g><g><rect class="st2" height="10" width="10" x="104" y="64"/></g><g><rect class="st2" height="10" width="10" x="114" y="54"/></g></g></svg>