<?xml version="1.0" encoding="iso-8859-1"?>
<!-- Generator: Adobe Illustrator 19.0.0, SVG Export Plug-In . SVG Version: 6.00 Build 0)  -->
<svg version="1.1" id="Layer_1" xmlns="http://www.w3.org/2000/svg" xmlns:xlink="http://www.w3.org/1999/xlink" x="0px" y="0px"
	 viewBox="0 0 506.458 506.458" style="enable-background:new 0 0 506.458 506.458;" xml:space="preserve">
<g transform="translate(1 1)">
	<path style="fill:#FFDD09;" d="M407.644,153.422c0,0-51.2-53.895-62.877-64.674c-13.474-12.575-6.288-17.965-3.593-31.439
		c-47.607,0-84.435,34.133-102.4,79.046c-17.965-44.912-37.726-80.842-84.435-80.842c-39.523,0-72.758,11.677-98.807,40.421
		c-35.93,38.625-52.996,132.042,5.389,194.021c7.186-4.491,16.168-7.186,25.151-7.186c19.761,0,19.761,14.372,26.947,33.235
		c7.186-18.863,11.677-35.93,30.54-35.93c16.168,0,44.014-0.898,54.793,11.677c14.372,16.168,21.558,52.098-5.389,79.046
		c-4.491,4.491-15.27,15.27-26.947,27.846c40.421,42.218,72.758,79.046,72.758,79.046s128.449-150.007,161.684-182.344
		c55.691-53.895,52.997-123.958,28.744-167.972C412.135,144.439,407.644,153.422,407.644,153.422"/>
	<path style="fill:#FFFFFF;" d="M66.311,95.934c22.456-24.253,50.302-36.828,82.639-39.523c-2.695-0.898-6.288-0.898-10.779-0.898
		c-39.523,0-72.758,11.677-98.807,40.421c-35.93,38.625-55.691,132.042,1.796,194.021c4.491-2.695,13.474-4.491,22.456-5.389
		C11.518,222.587,32.178,133.66,66.311,95.934"/>
	<path style="fill:#FD9808;" d="M233.385,487.569c0,0,152.702-159.888,185.937-192.225c55.691-53.895,52.996-123.958,28.744-167.972
		c-5.389,5.389-10.779,10.779-15.27,16.168c16.168,44.014,13.474,104.196-35.93,151.803
		C363.63,328.58,224.402,478.587,224.402,478.587"/>
	<path style="fill:#FFDD09;" d="M259.434,480.383c3.593,3.593,9.881,3.593,13.474,0c29.642-31.439,150.007-157.193,179.649-185.039
		c55.691-53.895,42.218-140.126,17.965-184.14c-5.389,5.389-10.779,10.779-15.27,16.168
		c16.168,44.014,24.253,120.365-25.151,167.972c-34.133,33.235-173.361,183.242-173.361,183.242L259.434,480.383z"/>
	<path style="fill:#DB4D6C;" d="M415.729,44.734c6.288-15.27,4.491-25.151,20.66-25.151c13.474,0,17.067,4.491,25.151,14.372
		c11.677,13.474,17.067,42.218-4.491,63.775c-11.677,11.677-56.589,56.589-56.589,56.589s-35.93-44.912-47.607-55.691
		c-22.456-21.558-17.067-50.302-4.491-63.775c8.982-9.881,19.761-17.067,33.235-17.067
		C397.764,17.787,410.339,29.464,415.729,44.734"/>
	<path style="fill:#D21F47;" d="M481.3,33.955c-8.982-9.881-19.761-17.067-33.235-17.067c-4.491,0-8.084,0.898-11.677,2.695
		c9.881,0.898,13.474,6.288,20.66,14.372c11.677,13.474,17.067,42.218-4.491,63.775c-8.982,8.982-39.523,39.523-52.098,51.2
		c8.084,8.084,13.474,13.474,13.474,13.474s51.2-53.895,62.877-64.674C498.367,77.071,493.876,47.429,481.3,33.955"/>
	<path style="fill:#DB4D6C;" d="M113.02,316.004c7.186-18.863,25.151-35.93,44.912-35.93c16.168,0,30.54,8.084,41.319,20.66
		c14.372,16.168,21.558,52.098-6.288,79.046c-14.372,13.474-70.961,62.877-70.961,62.877s-47.607-48.505-61.979-61.979
		c-27.846-26.049-21.558-61.979-6.288-79.046c11.677-12.575,16.168-21.558,32.337-21.558
		C105.834,280.074,105.834,297.141,113.02,316.004"/>
	<path style="fill:#FFFFFF;" d="M122.002,441.759c0,0-47.607-48.505-61.979-61.979c-27.846-26.049-21.558-61.979-6.288-79.046
		c8.982-9.881,13.474-17.067,23.354-19.761c-2.695,0-4.491-0.898-7.186-0.898c-16.168,0-29.642,8.982-41.319,20.66
		c-15.27,17.067-21.558,52.997,6.288,79.046c15.27,13.474,78.147,79.944,78.147,79.944"/>
	<path id="SVGCleanerId_0" d="M113.02,468.706L113.02,468.706c-2.695,0-4.491-0.898-6.288-2.695
		c-0.898-0.898-62.877-66.47-77.249-79.944c-29.642-27.846-26.947-69.165-6.288-91.621c14.372-15.27,30.54-23.354,47.607-23.354
		s31.439,8.982,42.218,23.354c10.779-14.372,26.049-23.354,42.218-23.354c17.067,0,34.133,8.084,47.607,23.354
		c16.168,17.965,26.049,60.182-6.288,91.621c-13.474,13.474-76.351,79.046-77.249,79.944
		C117.511,467.808,115.714,468.706,113.02,468.706z M70.802,289.955c-11.677,0-23.354,6.288-34.133,17.965
		c-11.677,13.474-18.863,43.116,5.389,66.47c11.677,10.779,54.793,55.691,70.961,73.656c17.067-17.067,60.182-61.979,70.961-73.656
		c23.354-23.354,17.067-52.996,5.389-66.47c-10.779-11.677-21.558-17.067-34.133-17.067c-17.067,0-28.744,14.372-34.133,26.947
		c-0.898,3.593-4.491,5.389-8.084,5.389l0,0c-3.593,0-7.186-2.695-8.084-5.389C99.546,303.429,87.869,289.955,70.802,289.955z"/>
	<path d="M418.423,172.285L418.423,172.285c-2.695,0-4.491-0.898-6.288-2.695c-0.898-0.898-51.2-53.895-62.877-64.674
		c-25.151-23.354-22.456-58.386-5.389-76.351C355.546,15.99,369.02,8.804,383.392,8.804c13.474,0,26.049,6.288,34.133,17.965
		c8.982-10.779,21.558-17.965,35.032-17.965c14.372,0,28.744,7.186,40.421,19.761c16.168,17.965,18.863,52.996-5.389,76.351
		c-10.779,10.779-61.979,64.674-62.877,64.674C422.914,171.387,421.118,172.285,418.423,172.285z M384.29,26.769
		c-8.982,0-17.965,4.491-26.947,13.474c-8.982,9.881-14.372,33.235,4.491,51.2c8.982,8.982,42.218,43.116,56.589,58.386
		c14.372-15.27,47.607-49.404,56.589-58.386c17.965-17.067,14.372-41.319,4.491-51.2c-8.084-8.982-17.067-13.474-26.947-13.474
		c-13.474,0-22.456,10.779-26.049,21.558c-1.796,3.593-4.491,5.389-8.084,5.389c-3.593,0-7.186-2.695-8.084-5.389
		C405.848,37.548,396.865,26.769,384.29,26.769z"/>
	<g>
		<path id="SVGCleanerId_0_1_" d="M113.02,468.706L113.02,468.706c-2.695,0-4.491-0.898-6.288-2.695
			c-0.898-0.898-62.877-66.47-77.249-79.944c-29.642-27.846-26.947-69.165-6.288-91.621c14.372-15.27,30.54-23.354,47.607-23.354
			s31.439,8.982,42.218,23.354c10.779-14.372,26.049-23.354,42.218-23.354c17.067,0,34.133,8.084,47.607,23.354
			c16.168,17.965,26.049,60.182-6.288,91.621c-13.474,13.474-76.351,79.046-77.249,79.944
			C117.511,467.808,115.714,468.706,113.02,468.706z M70.802,289.955c-11.677,0-23.354,6.288-34.133,17.965
			c-11.677,13.474-18.863,43.116,5.389,66.47c11.677,10.779,54.793,55.691,70.961,73.656c17.067-17.067,60.182-61.979,70.961-73.656
			c23.354-23.354,17.067-52.996,5.389-66.47c-10.779-11.677-21.558-17.067-34.133-17.067c-17.067,0-28.744,14.372-34.133,26.947
			c-0.898,3.593-4.491,5.389-8.084,5.389l0,0c-3.593,0-7.186-2.695-8.084-5.389C99.546,303.429,87.869,289.955,70.802,289.955z"/>
	</g>
	<path d="M238.774,495.653L238.774,495.653c-2.695,0-4.491-0.898-6.288-2.695c0,0-35.032-36.828-75.453-79.046
		c-3.593-3.593-3.593-8.982,0-12.575c14.372-14.372,23.354-23.354,26.947-27.846c23.354-23.354,17.067-52.997,5.389-66.47
		c-10.779-11.677-21.558-17.067-34.133-17.067c-17.067,0-28.744,14.372-34.133,26.947c-1.796,3.593-4.491,5.389-8.084,5.389l0,0
		c-3.593,0-7.186-2.695-8.084-5.389c-5.389-13.474-17.067-26.947-34.133-26.947c-7.186,0-13.474,1.796-19.761,5.389
		c-3.593,1.797-8.084,1.797-10.779-1.797c-50.302-52.996-47.607-117.67-28.744-160.786c1.796-4.491,7.186-6.288,11.677-4.491
		c4.491,1.796,6.288,7.186,4.491,11.677c-16.168,35.93-17.965,90.723,21.558,136.533c7.186-2.695,14.372-4.491,22.456-4.491
		c17.067,0,31.439,8.982,42.218,23.354c10.779-14.372,26.049-23.354,42.218-23.354c17.067,0,34.133,8.084,47.607,23.354
		c16.168,17.965,26.049,60.182-6.288,90.723c-3.593,3.593-10.779,10.779-20.66,21.558c27.846,28.744,52.098,54.793,63.775,66.47
		c29.642-31.439,150.007-157.193,179.649-185.937c46.709-44.912,50.302-103.298,32.337-146.414
		c-14.372,14.372-26.947,27.846-26.947,27.846c-2.695,1.796-4.491,2.695-7.186,2.695l0,0c-2.695,0-4.491-0.898-6.288-2.695
		c-0.898-0.898-51.2-53.895-62.877-64.674s-17.965-24.253-17.965-39.523c-35.93,4.491-67.368,31.439-83.537,72.758
		c-0.898,3.593-4.491,5.389-8.084,5.389l0,0c-3.593,0-7.186-2.695-8.084-5.389c-17.965-45.811-53.895-73.656-93.418-73.656
		c-25.151,0.898-47.607,8.982-69.165,25.151c-4.491,2.695-9.881,1.796-12.575-1.796c-3.593-3.593-2.695-9.881,1.796-12.575
		c24.253-18.863,51.2-27.846,79.046-27.846c41.319,0,79.046,25.151,101.502,67.368c22.456-41.319,60.182-66.47,101.502-67.368l0,0
		c2.695,0,5.389,0.898,7.186,2.695c1.797,1.796,2.695,4.491,1.797,7.186c-0.898,7.186-0.898,21.558,12.575,34.133
		c8.982,8.982,42.218,44.014,56.589,58.386c7.186-7.186,17.965-18.863,28.744-30.54c1.796-1.796,4.491-2.695,8.084-2.695
		c2.695,0,5.389,1.796,6.288,4.491c26.049,48.505,26.947,123.06-30.54,178.751c-33.235,32.337-184.14,190.428-185.937,192.225
		C244.164,494.755,241.469,495.653,238.774,495.653z"/>
	<path d="M48.346,105.815c0-5.389-3.593-8.982-8.982-8.982s-8.982,3.593-8.982,8.982c0,5.389,3.593,8.982,8.982,8.982
		S48.346,110.306,48.346,105.815"/>
</g>
<g>
</g>
<g>
</g>
<g>
</g>
<g>
</g>
<g>
</g>
<g>
</g>
<g>
</g>
<g>
</g>
<g>
</g>
<g>
</g>
<g>
</g>
<g>
</g>
<g>
</g>
<g>
</g>
<g>
</g>
</svg>
