<svg xmlns="http://www.w3.org/2000/svg" width="60" height="43.859" viewBox="0 0 60 43.859">
  <g id="iconfinder_priority-list-sorting-sort-filter-ordering_4391096" transform="translate(-2 -10.07)">
    <path id="Pfad_236" data-name="Pfad 236" d="M12,22.28H48.75a1,1,0,0,0,1-1V11.07a1,1,0,0,0-1-1H12a1,1,0,0,0-1,1V21.28A1,1,0,0,0,12,22.28Zm1-10.21H47.75v8.21H13Z" fill="#fff"/>
    <path id="Pfad_237" data-name="Pfad 237" d="M61,26.41H20a1,1,0,0,0-1,1v10.2a1,1,0,0,0,1,1H61a1,1,0,0,0,1-1V27.41A1,1,0,0,0,61,26.41Zm-1,10.2H21v-8.2H60Z" fill="#fff"/>
    <path id="Pfad_238" data-name="Pfad 238" d="M54.88,41.72H12a1,1,0,0,0-1,1V52.93a1,1,0,0,0,1,1H54.88a1,1,0,0,0,1-1V42.72A1,1,0,0,0,54.88,41.72Zm-1,10.21H13V43.72H53.88Z" fill="#fff"/>
    <path id="Pfad_239" data-name="Pfad 239" d="M17,32.49H4v-16H7l-1.8,2.4,1.6,1.2,3-4h0a.45.45,0,0,0,.1-.14,1,1,0,0,0-.09-1l-3-4-1.6,1.2L7,14.49H3a1,1,0,0,0-1,1v18a1,1,0,0,0,1,1H17Z" fill="#fff"/>
  </g>
</svg>
