<svg xmlns="http://www.w3.org/2000/svg" width="34.75" height="41.21" viewBox="0 0 34.75 41.21">
  <g id="iconfinder_priority-list-sorting-sort-filter-ordering_4391096" transform="translate(-16 -11.07)">
    <path id="Pfad_236" data-name="Pfad 236" d="M12,19.28H28.75a1,1,0,0,0,1-1V11.07a1,1,0,0,0-1-1H12a1,1,0,0,0-1,1v7.21A1,1,0,0,0,12,19.28Zm1-7.21H27.75v5.21H13Z" transform="translate(14 1)" fill="#fff"/>
    <path id="Pfad_241" data-name="Pfad 241" d="M12,19.28h6.75a1,1,0,0,0,1-1V11.07a1,1,0,0,0-1-1H12a1,1,0,0,0-1,1v7.21A1,1,0,0,0,12,19.28Zm1-7.21h4.75v5.21H13Z" transform="translate(5 20)" fill="#fff"/>
    <path id="Pfad_242" data-name="Pfad 242" d="M22,19.28h6.75a1,1,0,0,0,1-1V11.07a1,1,0,0,0-1-1H22a1,1,0,0,0-1,1v7.21A1,1,0,0,0,22,19.28Zm1-7.21h4.75v5.21H23Z" transform="translate(21 20)" fill="#fff"/>
    <path id="Pfad_248" data-name="Pfad 248" d="M22,19.28h6.75a1,1,0,0,0,1-1V11.07a1,1,0,0,0-1-1H22a1,1,0,0,0-1,1v7.21A1,1,0,0,0,22,19.28Zm1-7.21h4.75v5.21H23Z" transform="translate(8.5 20)" fill="#fff"/>
    <path id="Pfad_244" data-name="Pfad 244" d="M22,19.28h6.75a1,1,0,0,0,1-1V11.07a1,1,0,0,0-1-1H22a1,1,0,0,0-1,1v7.21A1,1,0,0,0,22,19.28Zm1-7.21h4.75v5.21H23Z" transform="translate(8.5 33)" fill="#fff"/>
    <path id="Pfad_239" data-name="Pfad 239" d="M17,32.49H4v-6c.06.038-2.016,0-2,0v7a1,1,0,0,0,1,1H17Z" transform="translate(31 -8)" fill="#fff"/>
    <path id="Pfad_240" data-name="Pfad 240" d="M2,32.49H15v-6c-.06.038,2.016,0,2,0v7a1,1,0,0,1-1,1H2Z" transform="translate(18 -8)" fill="#fff"/>
    <rect id="Rechteck_392" data-name="Rechteck 392" width="2" height="4" transform="translate(20 26.07)" fill="#fff"/>
    <rect id="Rechteck_393" data-name="Rechteck 393" width="2" height="4" transform="translate(46 26.07)" fill="#fff"/>
    <path id="Pfad_246" data-name="Pfad 246" d="M11.344,32.49H4c-.028.018.058,2.054,0,2h7.348Z" transform="translate(67.491 33.652) rotate(90)" fill="#fff"/>
    <path id="Pfad_249" data-name="Pfad 249" d="M12.693,32.49H4c-.033.018.068,2.054,0,2h8.7Z" transform="translate(67.491 18.652) rotate(90)" fill="#fff"/>
  </g>
</svg>
