<svg xmlns="http://www.w3.org/2000/svg" width="49.624" height="42.12" viewBox="0 0 49.624 42.12">
  <g id="Gruppe_32" data-name="Gruppe 32" transform="translate(-1237.095 -311.88)">
    <path id="Pfad_22" data-name="Pfad 22" d="M42.252,41.834V58.787h1.866V41.834a10.79,10.79,0,0,0-5.374-9.329,9.859,9.859,0,1,0-15.677,0,10.8,10.8,0,0,0-5.388,9.329V58.787h1.866V41.834a7.953,7.953,0,0,1,4.671-7.251l1.387.229c.215.143.444.272.659.387a5.931,5.931,0,0,0,.616.287,10.347,10.347,0,0,0,1.032.416h0a9.271,9.271,0,0,0,5.932,0h0a9.343,9.343,0,0,0,1.046-.416,5.731,5.731,0,0,0,.6-.287,6.09,6.09,0,0,0,.659-.387l1.4-.229A7.939,7.939,0,0,1,42.252,41.834ZM36.434,32.8c-1.942,1.588-6.572,2.044-8.936,1.2a6.778,6.778,0,0,1-2.121-1.2c-2.225-1.9-3.031-5.98-2.02-8.723s4.625-5.566,7.548-5.566,6.537,2.822,7.548,5.566.2,6.826-2.02,8.723Z" transform="translate(1230.825 295.213)" fill="#fff"/>
    <path id="Pfad_23" data-name="Pfad 23" d="M32.1,30.438v9.276h1.568V30.438a5.9,5.9,0,0,0-2.94-5.1,5.394,5.394,0,1,0-8.578,0,14.2,14.2,0,0,0,1.176,1.137l.212.125c.118.078.243.149.361.212a3.245,3.245,0,0,0,.337.157,5.661,5.661,0,0,0,.565.227h0a5.073,5.073,0,0,0,3.246,0h0a5.112,5.112,0,0,0,.572-.227,3.136,3.136,0,0,0,.329-.157,3.333,3.333,0,0,0,.361-.212l.22-.125A4.344,4.344,0,0,1,32.1,30.438ZM28.92,24.949a3.92,3.92,0,0,1-3.795.659,3.709,3.709,0,0,1-1.16-.659,3.818,3.818,0,1,1,4.955,0Z" transform="translate(1253.048 302)" fill="#fff"/>
    <path id="Pfad_24" data-name="Pfad 24" d="M22.615,30.438v9.276H21.047V30.438a5.9,5.9,0,0,1,2.94-5.1,5.394,5.394,0,1,1,8.578,0,14.2,14.2,0,0,1-1.176,1.137l-.212.125c-.118.078-.243.149-.361.212a3.245,3.245,0,0,1-.337.157,5.661,5.661,0,0,1-.565.227h0a5.073,5.073,0,0,1-3.246,0h0a5.112,5.112,0,0,1-.572-.227,3.136,3.136,0,0,1-.329-.157,3.333,3.333,0,0,1-.361-.212l-.22-.125A4.344,4.344,0,0,0,22.615,30.438ZM25.8,24.949a3.92,3.92,0,0,0,3.795.659,3.709,3.709,0,0,0,1.16-.659,3.818,3.818,0,1,0-4.955,0Z" transform="translate(1216.048 302)" fill="#fff"/>
  </g>
</svg>
