<svg xmlns="http://www.w3.org/2000/svg" width="1157.107" height="623.588" viewBox="0 0 1157.107 623.588">
  <g id="Gruppe_144" data-name="Gruppe 144" transform="translate(-206.066 -462.407)">
    <g id="Gruppe_129" data-name="Gruppe 129" opacity="0.75">
      <line id="Linie_12" data-name="Linie 12" y2="394.582" transform="translate(522.375 508)" fill="none" stroke="#22247e" stroke-miterlimit="10" stroke-width="5"/>
      <line id="Linie_13" data-name="Linie 13" y2="394.582" transform="translate(765.906 508)" fill="none" stroke="#22247e" stroke-miterlimit="10" stroke-width="5"/>
      <line id="Linie_14" data-name="Linie 14" y2="394.582" transform="translate(1004.043 508)" fill="none" stroke="#22247e" stroke-miterlimit="10" stroke-width="5"/>
      <line id="Linie_15" data-name="Linie 15" y2="394.582" transform="translate(1231.39 508)" fill="none" stroke="#22247e" stroke-miterlimit="10" stroke-width="5"/>
      <line id="Linie_16" data-name="Linie 16" y2="394.582" transform="translate(306.588 508)" fill="none" stroke="#22247e" stroke-miterlimit="10" stroke-width="5"/>
    </g>
    <g id="Gruppe_105" data-name="Gruppe 105" transform="translate(303.12 606.646)">
      <path id="Pfad_264" data-name="Pfad 264" d="M1122.994,780.166c-1.625-.118-3.243-.185-4.856-.185-29.424,0-53.836,16.225-76.775,37.882-45.945,43.378-85.713,108.548-147.489,107-59.376-1.484-107-110.662-158.368-188.634V961.089h387.488Z" transform="translate(-424.537 -658.987)" fill="#252274"/>
      <path id="Pfad_265" data-name="Pfad 265" d="M642.969,712.656C614.413,669.469,584.69,636,551.145,636,457.005,636,332,938.1,332,938.1H642.969Z" transform="translate(-332 -636)" fill="#252274"/>
      <path id="Pfad_266" data-name="Pfad 266" d="M1238.206,793.232V974.16h229.5C1438.421,934.856,1325.842,799.494,1238.206,793.232Z" transform="translate(-539.822 -672.058)" fill="#252274"/>
    </g>
    <path id="Pfad_274" data-name="Pfad 274" d="M646.195,713.554C617.675,670.367,584.373,631,550.87,631,456.848,631,332,933.1,332,933.1" transform="translate(-28.88 -28.208)" fill="none" stroke="#ff52ff" stroke-linecap="round" stroke-linejoin="bevel" stroke-width="10"/>
    <g id="pfadtext" transform="translate(322.608 621.974)">
      <g id="Gruppe_113" data-name="Gruppe 113" transform="translate(277.761 0)">
        <g id="Gruppe_112" data-name="Gruppe 112">
          <path id="Pfad_275" data-name="Pfad 275" d="M724.121,665.533a4.006,4.006,0,0,1-2.877.786,4.177,4.177,0,0,1-2.559-1.568,3.941,3.941,0,0,1-.949-2.079,4.053,4.053,0,0,1,.387-2.267,6.272,6.272,0,0,1,1.644-2.09l1.106-.939a6.332,6.332,0,0,1,2.351-1.311,4.012,4.012,0,0,1,2.326-.006,4.089,4.089,0,0,1,1.935,1.313,4,4,0,0,1,1.1,2.788,4.053,4.053,0,0,1-1.26,2.655l-.616-.726a2.845,2.845,0,0,0,.169-4.2,2.932,2.932,0,0,0-2.434-1.111,4.932,4.932,0,0,0-2.979,1.346l-1.043.885a4.97,4.97,0,0,0-1.785,2.669,2.83,2.83,0,0,0,.659,2.557,3.142,3.142,0,0,0,1.987,1.244,3.406,3.406,0,0,0,2.225-.67Z" transform="translate(-717.704 -655.89)" fill="#fff"/>
          <path id="Pfad_276" data-name="Pfad 276" d="M737.635,680.453a6.467,6.467,0,0,1-2.479,1.219,4.069,4.069,0,0,1-2.352-.123,4.176,4.176,0,0,1-1.888-1.437,3.971,3.971,0,0,1-.8-3.364,5.6,5.6,0,0,1,2.276-3.25l.915-.7a6.427,6.427,0,0,1,2.48-1.211,4.023,4.023,0,0,1,4.255,1.549,4.178,4.178,0,0,1,.886,2.187,4.087,4.087,0,0,1-.474,2.277,6.331,6.331,0,0,1-1.754,2.042Zm.392-1.486a4.939,4.939,0,0,0,1.961-2.644,3.285,3.285,0,0,0-3.025-3.963,4.979,4.979,0,0,0-3.109,1.207l-.928.707a4.939,4.939,0,0,0-1.947,2.643A3.288,3.288,0,0,0,734,680.907a5.074,5.074,0,0,0,3.087-1.224Z" transform="translate(-723.566 -663.306)" fill="#fff"/>
          <path id="Pfad_277" data-name="Pfad 277" d="M744.3,698.881l-.542-.773,4.146-10.751-7.833,5.489-.547-.779,9.153-6.415.547.78-4.147,10.761,7.839-5.494.537.767Z" transform="translate(-728.091 -670.056)" fill="#fff"/>
          <path id="Pfad_278" data-name="Pfad 278" d="M756.08,710.845l-.165.182.237-.073,10.112-2.46.571.865-11.62,2.683-.5-.756,7.038-9.628.566.858Z" transform="translate(-735.32 -677.674)" fill="#fff"/>
          <path id="Pfad_279" data-name="Pfad 279" d="M769.482,727.572l-2.8-4.416-3.852,2.44,3.217,5.077-.674.427-3.722-5.874,9.441-5.982,3.7,5.842-.674.427-3.2-5.044-3.567,2.26,2.8,4.415Z" transform="translate(-738.622 -686.045)" fill="#fff"/>
          <path id="Pfad_280" data-name="Pfad 280" d="M776.863,740.818l-1.7-2.766-3.97,2.44-.5-.811,9.521-5.853,1.9,3.093a4.142,4.142,0,0,1,.725,2.834,3.306,3.306,0,0,1-3.48,2.581,3.216,3.216,0,0,1-1.851-.844l-2.591,4.872-.085.052-.527-.857Zm-1.02-3.184,1.516,2.466a2.682,2.682,0,0,0,1.577,1.274,2.555,2.555,0,0,0,3.042-1.906,3.118,3.118,0,0,0-.549-2.141l-1.395-2.269Z" transform="translate(-742.926 -692.987)" fill="#fff"/>
          <path id="Pfad_281" data-name="Pfad 281" d="M787.173,763.412a3.161,3.161,0,0,1-1.727-.757,6.66,6.66,0,0,1-1.544-1.808,4.354,4.354,0,0,1-.663-2.324,4.19,4.19,0,0,1,.711-2.273,6.036,6.036,0,0,1,1.97-1.848l1.21-.728a5.4,5.4,0,0,1,3.753-.887,3.975,3.975,0,0,1,2.781,2.009,4.19,4.19,0,0,1,.679,2.834,3.63,3.63,0,0,1-1.431,2.321l-.486-.809a2.9,2.9,0,0,0,1.083-1.821,3.224,3.224,0,0,0-.526-2.107,3.037,3.037,0,0,0-2.232-1.551,4.826,4.826,0,0,0-3.163.836l-1.133.681a5.516,5.516,0,0,0-1.708,1.534,3.441,3.441,0,0,0-.659,1.848,3.286,3.286,0,0,0,.5,1.872,5.188,5.188,0,0,0,1.409,1.6,2.266,2.266,0,0,0,.941.419l2.473-1.488-1.547-2.572.684-.411,2.034,3.381Z" transform="translate(-748.896 -701.98)" fill="#fff"/>
          <path id="Pfad_282" data-name="Pfad 282" d="M798.944,776.182l-2.673-4.492-3.918,2.332,3.073,5.165-.686.408-3.556-5.977,9.6-5.716,3.537,5.944-.686.408-3.054-5.132-3.628,2.159,2.673,4.492Z" transform="translate(-752.678 -709.205)" fill="#fff"/>
        </g>
      </g>
      <g id="Gruppe_115" data-name="Gruppe 115" transform="translate(8.384 96.121)">
        <g id="Gruppe_114" data-name="Gruppe 114">
          <path id="Pfad_283" data-name="Pfad 283" d="M367.647,867.132l-10.359-5.4,1.509-2.9a5.081,5.081,0,0,1,1.77-1.982,4.519,4.519,0,0,1,2.483-.71,5.9,5.9,0,0,1,2.757.717l.953.5a5.9,5.9,0,0,1,2.169,1.845,4.508,4.508,0,0,1,.833,2.447,5.234,5.234,0,0,1-.638,2.649Zm-9.163-5.887,8.88,4.626,1.023-1.964a3.812,3.812,0,0,0,.281-3.191,4.729,4.729,0,0,0-2.422-2.519l-.911-.475a4.624,4.624,0,0,0-3.37-.516,3.747,3.747,0,0,0-2.42,2Z" transform="translate(-357.288 -805.867)" fill="#fff"/>
          <path id="Pfad_284" data-name="Pfad 284" d="M377.43,852.366l-.463.871L366.65,847.76l.463-.871Z" transform="translate(-361.523 -801.68)" fill="#fff"/>
          <path id="Pfad_285" data-name="Pfad 285" d="M380.465,837.325l.249.062-.184-.182-7.257-8.1.515-.952,8.206,9.381-.45.833L369.2,836.633l.511-.945Z" transform="translate(-362.676 -793.204)" fill="#fff"/>
          <path id="Pfad_286" data-name="Pfad 286" d="M387.629,817.346l-2.652,4.776,4.166,2.313,3.049-5.492.73.405-3.529,6.355-10.212-5.67,3.508-6.32.73.405-3.03,5.456,3.858,2.142,2.652-4.777Z" transform="translate(-367.191 -786.674)" fill="#fff"/>
          <path id="Pfad_287" data-name="Pfad 287" d="M395.651,805.2l-1.683,2.947,4.229,2.415-.493.864-10.143-5.794,1.882-3.295a4.331,4.331,0,0,1,2.234-2.087,3.457,3.457,0,0,1,4.113,1.9,3.363,3.363,0,0,1,.154,2.121l5.767-.069.09.052-.521.912Zm-2.407,2.533,1.5-2.626a2.8,2.8,0,0,0,.377-2.086,2.669,2.669,0,0,0-3.274-1.833,3.259,3.259,0,0,0-1.687,1.577l-1.381,2.417Z" transform="translate(-370.981 -780.508)" fill="#fff"/>
          <path id="Pfad_288" data-name="Pfad 288" d="M411.422,786.516a3.307,3.307,0,0,1,.163,1.964,6.961,6.961,0,0,1-.894,2.319,4.553,4.553,0,0,1-1.807,1.765,4.376,4.376,0,0,1-2.443.476,6.289,6.289,0,0,1-2.678-.892l-1.271-.751a5.641,5.641,0,0,1-2.681-3.009,4.154,4.154,0,0,1,.465-3.555,4.381,4.381,0,0,1,2.268-2.034,3.791,3.791,0,0,1,2.844.161l-.5.849a3.027,3.027,0,0,0-2.213-.091A3.369,3.369,0,0,0,401,785.251a3.175,3.175,0,0,0-.315,2.823,5.045,5.045,0,0,0,2.342,2.492l1.189.7a5.763,5.763,0,0,0,2.259.808,3.592,3.592,0,0,0,2.027-.313,3.439,3.439,0,0,0,1.473-1.389,5.427,5.427,0,0,0,.768-2.09,2.355,2.355,0,0,0-.083-1.074l-2.6-1.534-1.595,2.7-.719-.424,2.1-3.55Z" transform="translate(-376.426 -772.598)" fill="#fff"/>
          <path id="Pfad_289" data-name="Pfad 289" d="M416.333,768.179l-2.851,4.661,4.066,2.486,3.277-5.359.711.435-3.792,6.2-9.966-6.094,3.771-6.167.712.435-3.256,5.325,3.764,2.3,2.85-4.661Z" transform="translate(-380.126 -764.342)" fill="#fff"/>
        </g>
      </g>
    </g>
    <path id="Pfad_290" data-name="Pfad 290" d="M1467.707,969.16c-29.286-39.3-141.865-174.667-229.5-180.928" transform="translate(-236.702 -64.266)" fill="none" stroke="#48c435" stroke-linecap="round" stroke-miterlimit="10" stroke-width="10"/>
    <path id="Pfad_291" data-name="Pfad 291" d="M1123.571,776.9c-1.777-.508-3.82-1.921-5.432-1.921-88.627,0-131.784,147.2-224.265,144.886C834.5,918.383,790.608,815.275,739.239,737.3" transform="translate(-121.417 -51.194)" fill="none" stroke="#38cfc9" stroke-linejoin="bevel" stroke-width="10"/>
    <text id="EMPATHIZE" transform="translate(306.202 510.419)" fill="#598dd5" font-size="20" font-family="Roboto-Medium, Roboto" font-weight="500"><tspan x="54.222" y="19">EMPATHIZE</tspan></text>
    <text id="IDEATE" transform="translate(765.521 510.419)" fill="#ffb14d" font-size="20" font-family="Roboto-Medium, Roboto" font-weight="500"><tspan x="86.266" y="19">IDEATE</tspan></text>
    <text id="PROTOTYPE" transform="translate(1001.345 510.419)" fill="#ff6d00" font-size="20" font-family="Roboto-Medium, Roboto" font-weight="500"><tspan x="59" y="19">PROTOTYPE</tspan></text>
    <text id="DEFINE" transform="translate(521.989 510.419)" fill="#00a250" font-size="20" font-family="Roboto-Medium, Roboto" font-weight="500"><tspan x="88.509" y="19">DEFINE</tspan></text>
    <text id="IDEATION" transform="translate(708.831 914.873)" fill="#38cfc9" font-size="20" font-family="Roboto-Medium, Roboto" font-weight="500"><tspan x="43.808" y="19">IDEATION</tspan></text>
    <text id="INSPIRATION" transform="translate(377.676 918.873)" fill="#ff52ff" font-size="20" font-family="Roboto-Medium, Roboto" font-weight="500"><tspan x="44.518" y="19">INSPIRATION</tspan></text>
    <text id="IMPLEMENTATION" transform="translate(997.492 918.873)" fill="#48c435" font-size="20" font-family="Roboto-Medium, Roboto" font-weight="500"><tspan x="32.678" y="19">IMPLEMENTATION</tspan></text>
    <g id="Gruppe_118" data-name="Gruppe 118" transform="translate(652.455 695.948)">
      <g id="Gruppe_117" data-name="Gruppe 117" transform="translate(1.42 10.611)">
        <line id="Linie_19" data-name="Linie 19" x1="0.751" y1="1.547" transform="translate(5.171 2.488)" fill="#b3b3b3" stroke="#dc0000" stroke-miterlimit="10" stroke-width="3"/>
        <g id="Gruppe_116" data-name="Gruppe 116">
          <path id="Pfad_292" data-name="Pfad 292" d="M826.048,808.465l-.825,11.5-9.545-6.461Z" transform="translate(-815.678 -808.465)" fill="#b3b3b3"/>
        </g>
      </g>
      <line id="Linie_20" data-name="Linie 20" x2="7.852" y2="16.393" fill="#b3b3b3" stroke="#b3b3b3" stroke-miterlimit="10" stroke-width="3"/>
    </g>
    <g id="Gruppe_121" data-name="Gruppe 121" transform="translate(884.956 751.921)">
      <g id="Gruppe_120" data-name="Gruppe 120" transform="translate(4.619 0)">
        <line id="Linie_21" data-name="Linie 21" x1="1.083" y2="1.335" transform="translate(4.456 6.443)" fill="#b3b3b3" stroke="#dc0000" stroke-miterlimit="10" stroke-width="3"/>
        <g id="Gruppe_119" data-name="Gruppe 119">
          <path id="Pfad_293" data-name="Pfad 293" d="M1092.97,828.628l10.764-4.122-1.81,11.383Z" transform="translate(-1092.97 -824.506)" fill="#b3b3b3"/>
        </g>
      </g>
      <line id="Linie_22" data-name="Linie 22" y1="14.056" x2="11.525" transform="translate(0 5.241)" fill="#b3b3b3" stroke="#b3b3b3" stroke-miterlimit="10" stroke-width="3"/>
    </g>
    <g id="Gruppe_124" data-name="Gruppe 124" transform="translate(1111.275 751.297)">
      <g id="Gruppe_123" data-name="Gruppe 123" transform="translate(6.332 6.3)">
        <line id="Linie_23" data-name="Linie 23" x1="1.205" y1="1.227" transform="translate(4.089 4.016)" fill="#b3b3b3" stroke="#dc0000" stroke-miterlimit="10" stroke-width="3"/>
        <g id="Gruppe_122" data-name="Gruppe 122">
          <path id="Pfad_294" data-name="Pfad 294" d="M1397.084,831.872l2.882,11.16-11.107-3.082Z" transform="translate(-1388.859 -831.872)" fill="#b3b3b3"/>
        </g>
      </g>
      <line id="Linie_24" data-name="Linie 24" x2="12.667" y2="13.036" transform="translate(0)" fill="#b3b3b3" stroke="#b3b3b3" stroke-miterlimit="10" stroke-width="3"/>
    </g>
    <g id="Gruppe_127" data-name="Gruppe 127" transform="translate(372.846 691.312)">
      <g id="Gruppe_126" data-name="Gruppe 126" transform="translate(2.155)">
        <line id="Linie_25" data-name="Linie 25" x1="0.858" y2="1.49" transform="translate(4.98 7.19)" fill="#b3b3b3" stroke="#dc0000" stroke-miterlimit="10" stroke-width="3"/>
        <g id="Gruppe_125" data-name="Gruppe 125">
          <path id="Pfad_295" data-name="Pfad 295" d="M433.057,737.364l9.975-5.776.017,11.527Z" transform="translate(-433.057 -731.587)" fill="#b3b3b3"/>
        </g>
      </g>
      <line id="Linie_26" data-name="Linie 26" y1="15.705" x2="9.151" transform="translate(0 5.786)" fill="#b3b3b3" stroke="#b3b3b3" stroke-miterlimit="10" stroke-width="3"/>
    </g>
    <g id="Gruppe_111" data-name="Gruppe 111" transform="translate(206.066 796.127)">
      <g id="Gruppe_161" data-name="Gruppe 161">
        <g id="Pfad_267" data-name="Pfad 267" transform="translate(-207.067 -898.958)" fill="none">
          <path d="M257.139,1055.131c-27.122-17.591-42.018-36.113-44.386-55.131h-2.325c4.844,40.734,64.484,78.708,169.193,107.433C479.4,1134.807,609.3,1150.906,748.8,1153.4v-2.312c-139.291-2.5-268.975-18.566-368.564-45.886C327.459,1090.727,286.044,1073.879,257.139,1055.131Z" stroke="none"/>
          <path d="M 210.4279174804688 1000 L 212.7530517578125 1000 C 215.121337890625 1019.0185546875 230.016845703125 1037.5400390625 257.138916015625 1055.13134765625 C 286.043701171875 1073.87939453125 327.4585571289063 1090.726928710938 380.2316284179688 1105.204833984375 C 479.8204956054688 1132.525024414063 609.5047607421875 1148.594970703125 748.79541015625 1151.091064453125 L 748.79541015625 1153.403076171875 C 609.2998046875 1150.90625 479.3982238769531 1134.806884765625 379.6204833984375 1107.433471679688 C 274.9121704101563 1078.708374023438 215.2716674804688 1040.734375 210.4279174804688 1000 Z" stroke="none" fill="#fff"/>
        </g>
        <g id="Pfad_268" data-name="Pfad 268" transform="translate(-208.102 -875.331)" fill="none">
          <path d="M276.64,896.971c-32.65,17.171-53.6,35.927-61.7,55.51h2.5c6.263-14.428,19.882-28.5,40.736-42.03,5.674-3.68,18.466-10.816,18.466-10.816Z" stroke="none"/>
          <path d="M 276.6399536132813 896.9710083007813 L 276.6399536132813 899.635986328125 C 276.6399536132813 899.635986328125 263.8476257324219 906.7716064453125 258.1739807128906 910.4515991210938 C 237.3204193115234 923.9775390625 223.701171875 938.0530395507813 217.4379272460938 952.4815063476563 L 214.9409790039063 952.4815063476563 C 223.0438232421875 932.8980102539063 243.9897918701172 914.1422729492188 276.6399536132813 896.9710083007813 Z" stroke="none" fill="#fff"/>
        </g>
        <g id="Pfad_269" data-name="Pfad 269" transform="translate(-516.108 -868.891)" fill="none">
          <path d="M1558,868.891v2.46c27.378,10.076,50.2,21,68.174,32.661a174.343,174.343,0,0,1,15.463,11.2h3.65C1625.827,898.588,1596.448,882.963,1558,868.891Z" stroke="none"/>
          <path d="M 1558 868.8909912109375 C 1596.447998046875 882.96337890625 1625.826538085938 898.5879516601563 1645.287353515625 915.2150268554688 L 1641.637451171875 915.2150268554688 C 1637.02197265625 911.4426879882813 1631.8701171875 907.7064819335938 1626.174194335938 904.011962890625 C 1608.19677734375 892.3516845703125 1585.378051757813 881.4274291992188 1558 871.3510131835938 L 1558 868.8909912109375 Z" stroke="none" fill="#fff"/>
        </g>
        <g id="Pfad_270" data-name="Pfad 270" transform="translate(-393.301 -889.785)" fill="none">
          <path d="M1540.514,960q7.563,12.539,7.582,25.432c0,20.911-15.049,41.276-44.729,60.526-28.906,18.748-70.32,35.6-123.094,50.073-97.012,26.614-222.583,42.552-357.774,45.667v2.313c135.4-3.117,261.184-19.084,358.385-45.751,109.319-29.99,169.522-70.06,169.522-112.828A50.629,50.629,0,0,0,1543.179,960Z" stroke="none"/>
          <path d="M 1540.514038085938 960 L 1543.179077148438 960 C 1547.96484375 968.327880859375 1550.407958984375 976.8253173828125 1550.407958984375 985.4320068359375 C 1550.407958984375 1028.200317382813 1490.2041015625 1068.2705078125 1380.885498046875 1098.26025390625 C 1283.68408203125 1124.927001953125 1157.897216796875 1140.894409179688 1022.5 1144.010986328125 L 1022.5 1141.698120117188 C 1157.690673828125 1138.583984375 1283.261840820313 1122.645751953125 1380.273559570313 1096.031494140625 C 1433.047485351563 1081.5537109375 1474.461669921875 1064.7060546875 1503.3671875 1045.9580078125 C 1533.046997070313 1026.707641601563 1548.095947265625 1006.343383789063 1548.095947265625 985.4320068359375 C 1548.095947265625 976.84912109375 1545.555786132813 968.359375 1540.514038085938 960 Z" stroke="none" fill="#fff"/>
        </g>
      </g>
      <g id="Gruppe_162" data-name="Gruppe 162">
        <g id="Gruppe_107" data-name="Gruppe 107" transform="translate(0 97.646)">
          <line id="Linie_17" data-name="Linie 17" x2="0.201" y2="1.708" transform="translate(5.527 8.238)" fill="none" stroke="#fff" stroke-miterlimit="10" stroke-width="5"/>
          <g id="Gruppe_106" data-name="Gruppe 106">
            <g id="Pfad_271" data-name="Pfad 271" transform="translate(-206.067 -995.594)" fill="none">
              <path d="M206.067,1006.182l4.558-10.587,6.892,9.239Z" stroke="none"/>
              <path d="M 206.0668182373047 1006.181640625 L 210.6244049072266 995.5943603515625 L 217.5161743164063 1004.833740234375 L 206.0668182373047 1006.181640625 Z" stroke="none" fill="#fff"/>
            </g>
          </g>
        </g>
        <g id="Gruppe_108" data-name="Gruppe 108" transform="translate(59.84 20.863)">
          <g id="Pfad_272" data-name="Pfad 272" transform="translate(-283.714 -895.962)" fill="none">
            <path d="M283.714,895.962l11.5.843-6.476,9.535Z" stroke="none"/>
            <path d="M 283.7138061523438 895.9617919921875 L 295.2095031738281 896.8046264648438 L 288.7335205078125 906.3399658203125 L 283.7138061523438 895.9617919921875 Z" stroke="none" fill="#fff"/>
          </g>
        </g>
        <g id="Gruppe_110" data-name="Gruppe 110" transform="translate(1121.955 41.079)">
          <line id="Linie_18" data-name="Linie 18" x1="1.216" y1="1.216" transform="translate(4.053 4.053)" fill="none" stroke="#fff" stroke-miterlimit="10" stroke-width="5"/>
          <g id="Gruppe_109" data-name="Gruppe 109">
            <g id="Pfad_273" data-name="Pfad 273" transform="translate(-1661.887 -922.194)" fill="none">
              <path d="M1670.039,922.194l2.982,11.134-11.134-2.982Z" stroke="none"/>
              <path d="M 1670.039306640625 922.1942138671875 L 1673.021362304688 933.3282470703125 L 1661.887329101563 930.3460083007813 L 1670.039306640625 922.1942138671875 Z" stroke="none" fill="#fff"/>
            </g>
          </g>
        </g>
      </g>
      <text id="TEST" transform="translate(548.812 239.869)" fill="#fff" font-size="20" font-family="Roboto-Medium, Roboto" font-weight="500"><tspan x="11.164" y="19">TEST</tspan></text>
      <g id="iconfinder_usability_testing-test-testimonial-interview-discuss-meeting-ux_4391112" transform="translate(562.323 192.087)">
        <path id="Pfad_314" data-name="Pfad 314" d="M52.188,18.28a3.348,3.348,0,1,0,3.348,3.342A3.348,3.348,0,0,0,52.188,18.28Zm0,5.49a2.148,2.148,0,1,1,2.148-2.148,2.148,2.148,0,0,1-2.148,2.148Z" transform="translate(-18.272 -6.512)" fill="#fff"/>
        <path id="Pfad_315" data-name="Pfad 315" d="M49.65,31.69a3.264,3.264,0,0,0-1.08-.18H41.52a1.8,1.8,0,1,0,0,3.6h3.672v3.072H42.744a1.8,1.8,0,0,0-1.8,1.8V47.56A2.2,2.2,0,0,0,42.888,49.8h.186A2.124,2.124,0,0,0,45.2,47.68V43.69h4.89a1.8,1.8,0,0,0,1.8-1.8V34.852A3.354,3.354,0,0,0,49.65,31.69ZM40.9,33.322a.625.625,0,0,1,.612-.618h4.494a.069.069,0,0,1-.042.06,3.552,3.552,0,0,0-.294.444.841.841,0,0,0-.06.1,3.643,3.643,0,0,0-.252.6H41.52A.6.6,0,0,1,40.9,33.322Zm9.786,8.55a.6.6,0,0,1-.6.6H44.6a.642.642,0,0,0-.6.6v4.554a.924.924,0,0,1-1.032.978,1.008,1.008,0,0,1-.846-1.032V40.036a.6.6,0,0,1,.6-.6h3a.642.642,0,0,0,.6-.6V34.99a2.352,2.352,0,0,1,0-.354,2.2,2.2,0,0,1,1.914-1.92,2.262,2.262,0,0,1,.918.108,2.148,2.148,0,0,1,1.536,2.028Z" transform="translate(-14.624 -11.804)" fill="#fff"/>
        <path id="Pfad_316" data-name="Pfad 316" d="M6.508,24.966A3.348,3.348,0,1,0,3.16,21.618,3.348,3.348,0,0,0,6.508,24.966Zm0-5.49A2.148,2.148,0,1,1,4.36,21.618a2.148,2.148,0,0,1,2.148-2.142Z" transform="translate(0 -6.508)" fill="#fff"/>
        <path id="Pfad_317" data-name="Pfad 317" d="M12.316,38.215H9.868V34.987A3.444,3.444,0,0,0,6.82,31.513h0a3.324,3.324,0,0,0-2.544.888A3.372,3.372,0,0,0,3.19,34.873v7.02a1.8,1.8,0,0,0,1.8,1.8H9.88v3.978a2.124,2.124,0,0,0,2.136,2.13H12.2a2.2,2.2,0,0,0,1.938-2.226V40.033a1.8,1.8,0,0,0-1.824-1.818Zm.6,9.342a1.008,1.008,0,0,1-.84,1.044.96.96,0,0,1-.714-.24.924.924,0,0,1-.3-.684V43.111a.642.642,0,0,0-.6-.6H5a.6.6,0,0,1-.6-.6V34.849a2.16,2.16,0,0,1,.7-1.584A2.118,2.118,0,0,1,6.544,32.7h.2a2.238,2.238,0,0,1,1.95,2.28v3.8a.642.642,0,0,0,.6.6h3a.6.6,0,0,1,.6.6Z" transform="translate(-0.012 -11.801)" fill="#fff"/>
        <path id="Pfad_318" data-name="Pfad 318" d="M33.772,33.716v-1.2H30.1V23.96a.6.6,0,0,0-.6-.6H27.058a.6.6,0,0,0-.6.6v8.556H17.29v1.2h6.726V46.544h1.2V33.716h1.242V46.544h1.2V33.716Zm-6.114-1.2V24.56H28.9v7.956Z" transform="translate(-5.652 -8.544)" fill="#fff"/>
        <path id="Pfad_319" data-name="Pfad 319" d="M49.646,2H44.762a3.042,3.042,0,1,0,0,6.084H49.4l2.262,2.262a.6.6,0,0,0,1.026-.42V5.042A3.042,3.042,0,0,0,49.646,2Zm1.842,6.474L50.072,7.058a.6.6,0,0,0-.426-.174H44.762a1.842,1.842,0,1,1,0-3.684h4.884a1.848,1.848,0,0,1,1.842,1.842Z" transform="translate(-15.424)" fill="#fff"/>
        <rect id="Rechteck_408" data-name="Rechteck 408" width="6.102" height="1.2" transform="translate(28.732 4.442)" fill="#fff"/>
        <path id="Pfad_320" data-name="Pfad 320" d="M5.472,10.5a.585.585,0,0,0,.654-.132L8.394,8.1h.972V6.9h-1.2a.6.6,0,0,0-.42.174L6.3,8.494V4.45A1.23,1.23,0,0,1,7.536,3.22h6.1a1.23,1.23,0,0,1,1.23,1.23v1.2a1.23,1.23,0,0,1-1.23,1.23v1.2a2.436,2.436,0,0,0,2.43-2.43V4.45a2.436,2.436,0,0,0-2.43-2.4h-6.1A2.436,2.436,0,0,0,5.1,4.45v5.5A.6.6,0,0,0,5.472,10.5Z" transform="translate(-0.776 -0.02)" fill="#fff"/>
        <path id="Pfad_321" data-name="Pfad 321" d="M13.934,9.226a2.124,2.124,0,1,0-2.724-2.04h1.2a.924.924,0,1,1,.924.93.6.6,0,0,0-.6.6V10.24h1.2Z" transform="translate(-3.22 -1.226)" fill="#fff"/>
        <rect id="Rechteck_409" data-name="Rechteck 409" width="1.2" height="0.762" transform="translate(9.514 9.77)" fill="#fff"/>
      </g>
    </g>
    <g id="empathy" transform="translate(395.865 458.407)">
      <g id="Gruppe_146" data-name="Gruppe 146" transform="translate(18.193 4)">
        <g id="Gruppe_145" data-name="Gruppe 145" transform="translate(0 0)">
          <path id="Pfad_296" data-name="Pfad 296" d="M250.315,4a7.883,7.883,0,0,0-7.883,7.883v.5l-2.389,6.574a.607.607,0,0,0,.57.813h3.032v3.638a.606.606,0,0,0,.606.606h6.064v2.426a.606.606,0,0,0,.606.606h6.671a.606.606,0,0,0,.606-.606V11.883A7.883,7.883,0,0,0,250.315,4Zm6.671,21.831h-5.458V23.405a.606.606,0,0,0-.606-.606h-6.064V19.16a.606.606,0,0,0-.606-.606H241.48l2.129-5.858a.607.607,0,0,0,.036-.206v-.606a6.671,6.671,0,1,1,13.341,0Z" transform="translate(-240.007 -4)" fill="#598dd5"/>
        </g>
      </g>
      <g id="Gruppe_148" data-name="Gruppe 148" transform="translate(23.22 11.817)">
        <g id="Gruppe_147" data-name="Gruppe 147">
          <path id="Pfad_297" data-name="Pfad 297" d="M310.419,107.12a2.292,2.292,0,0,1-3.238,0l-.861.861a3.511,3.511,0,0,0,4.96,0Z" transform="translate(-306.32 -107.12)" fill="#598dd5"/>
        </g>
      </g>
      <g id="Gruppe_150" data-name="Gruppe 150" transform="translate(0 16.735)">
        <g id="Gruppe_149" data-name="Gruppe 149">
          <path id="Pfad_298" data-name="Pfad 298" d="M18.156,186.954l-2.389-6.574v-.5a7.883,7.883,0,0,0-15.767,0v14.554a.606.606,0,0,0,.606.606H7.277a.606.606,0,0,0,.606-.606v-2.426h6.064a.606.606,0,0,0,.606-.606v-3.638h3.032a.607.607,0,0,0,.57-.813Zm-4.209-.4a.606.606,0,0,0-.606.606V190.8H7.277a.606.606,0,0,0-.606.606v2.426H1.213V179.883a6.671,6.671,0,0,1,13.341,0v.606a.607.607,0,0,0,.036.206l2.129,5.858Z" transform="translate(0 -172)" fill="#598dd5"/>
        </g>
      </g>
      <g id="Gruppe_152" data-name="Gruppe 152" transform="translate(8.205 24.551)">
        <g id="Gruppe_151" data-name="Gruppe 151" transform="translate(0 0)">
          <path id="Pfad_299" data-name="Pfad 299" d="M112.339,275.12a2.292,2.292,0,0,1-3.238,0l-.861.861a3.511,3.511,0,0,0,4.96,0Z" transform="translate(-108.24 -275.12)" fill="#598dd5"/>
        </g>
      </g>
      <g id="Gruppe_154" data-name="Gruppe 154" transform="translate(5.027 8.851)">
        <g id="Gruppe_153" data-name="Gruppe 153">
          <path id="Pfad_300" data-name="Pfad 300" d="M71,68a3.032,3.032,0,0,0-3.032,3.032V72.6l-.782-.788-.861.861,1.819,1.819a.606.606,0,0,0,.858,0l0,0,1.819-1.819-.861-.861-.782.788V71.032A1.819,1.819,0,0,1,71,69.213h7.277V68Z" transform="translate(-66.32 -68)" fill="#598dd5"/>
        </g>
      </g>
      <g id="Gruppe_156" data-name="Gruppe 156" transform="translate(18.192 8.851)">
        <g id="Gruppe_155" data-name="Gruppe 155">
          <rect id="Rechteck_399" data-name="Rechteck 399" width="1.213" height="1.213" fill="#598dd5"/>
        </g>
      </g>
      <g id="Gruppe_158" data-name="Gruppe 158" transform="translate(18.192 28.253)">
        <g id="Gruppe_157" data-name="Gruppe 157">
          <path id="Pfad_301" data-name="Pfad 301" d="M254.984,324.133a.606.606,0,0,0-.858,0l0,0-1.819,1.819.861.861.782-.788v2.783a1.819,1.819,0,0,1-1.819,1.819H240v1.213h12.128a3.032,3.032,0,0,0,3.032-3.032v-2.783l.782.788.861-.861Z" transform="translate(-240 -323.954)" fill="#598dd5"/>
        </g>
      </g>
      <g id="Gruppe_160" data-name="Gruppe 160" transform="translate(15.767 34.927)">
        <g id="Gruppe_159" data-name="Gruppe 159">
          <rect id="Rechteck_400" data-name="Rechteck 400" width="1.213" height="1.213" fill="#598dd5"/>
        </g>
      </g>
    </g>
    <g id="iconfinder_goal-archivement-flag-success-target_4391081" transform="translate(621.554 460.407)">
      <path id="Pfad_302" data-name="Pfad 302" d="M33.385,19.328l-.919.758A13.129,13.129,0,1,1,20.53,15.414l-.161-1.194a14.322,14.322,0,1,0,13.016,5.1Z" transform="translate(0 -4.928)" fill="#00a250"/>
      <path id="Pfad_303" data-name="Pfad 303" d="M15.94,31.669A9.584,9.584,0,1,0,27.517,22.3l-.245,1.164a8.391,8.391,0,1,1-3.5,0L23.531,22.3a9.626,9.626,0,0,0-7.591,9.369Z" transform="translate(-3.203 -8.186)" fill="#00a250"/>
      <path id="Pfad_304" data-name="Pfad 304" d="M26.3,23.484a3.4,3.4,0,1,0,4-3.342V12.861H41.553a.6.6,0,0,0,.489-.937L39.459,8.212l2.584-3.718a.6.6,0,0,0-.489-.937H30.3V2.6a.6.6,0,1,0-1.194,0V20.142a3.4,3.4,0,0,0-2.8,3.342Zm5.61,0A2.208,2.208,0,1,1,29.7,21.276,2.208,2.208,0,0,1,31.91,23.484ZM38.241,7.866a.6.6,0,0,0,0,.686l2.166,3.115H30.3V4.751H40.408Z" transform="translate(-7.381)" fill="#00a250"/>
    </g>
    <g id="iconfinder_idea-light_bullb-creative-thinking_4391084" transform="translate(863.63 460.167)">
      <path id="Pfad_305" data-name="Pfad 305" d="M23.728,12.79a10.621,10.621,0,0,0-3.948,20.448v4.811a3.952,3.952,0,1,0,7.9,0V33.238A10.621,10.621,0,0,0,23.728,12.79Zm-2.7,23.741h5.4v1.381h-5.4Zm2.7,4.2a2.68,2.68,0,0,1-1.874-.8,2.549,2.549,0,0,1-.581-.768h4.917a2.7,2.7,0,0,1-2.462,1.593Zm3.124-8.54a.625.625,0,0,0-.419.587v2.5H24.277v-6.11l2.83-1.137-.469-1.156-2.986,1.193L20.66,26.872,20.2,28.028l2.83,1.137v6.129h-2v-2.5a.625.625,0,0,0-.419-.587,9.371,9.371,0,1,1,6.248,0Z" transform="translate(-3.852 -3.959)" fill="#ffb14d"/>
      <path id="Pfad_306" data-name="Pfad 306" d="M39.655,23.791a7.16,7.16,0,0,0-3.03-3.861L36,20.986a5.9,5.9,0,0,1,1.393,8.809l.931.8A7.11,7.11,0,0,0,39.655,23.791Z" transform="translate(-12.413 -6.638)" fill="#ffb14d"/>
      <rect id="Rechteck_401" data-name="Rechteck 401" width="1.25" height="4.33" transform="translate(19.382 2.24)" fill="#ffb14d"/>
      <rect id="Rechteck_402" data-name="Rechteck 402" width="4.33" height="1.25" transform="translate(29.727 10.202) rotate(-49.87)" fill="#ffb14d"/>
      <rect id="Rechteck_403" data-name="Rechteck 403" width="4.33" height="1.25" transform="translate(7.26 32.87) rotate(-49.87)" fill="#ffb14d"/>
      <rect id="Rechteck_404" data-name="Rechteck 404" width="1.25" height="4.33" transform="translate(30.26 28.92) rotate(-49.85)" fill="#ffb14d"/>
      <rect id="Rechteck_405" data-name="Rechteck 405" width="1.25" height="4.33" transform="translate(7.59 6.455) rotate(-49.85)" fill="#ffb14d"/>
      <rect id="Rechteck_406" data-name="Rechteck 406" width="4.33" height="1.25" transform="matrix(0.996, -0.085, 0.085, 0.996, 34.837, 18.326)" fill="#ffb14d"/>
      <rect id="Rechteck_407" data-name="Rechteck 407" width="4.33" height="1.25" transform="matrix(0.996, -0.085, 0.085, 0.996, 2.92, 18.469)" fill="#ffb14d"/>
    </g>
    <g id="iconfinder_wireframe-prototype-interface-screen-connect-ux_4391121" transform="translate(1095.55 460.407)">
      <path id="Pfad_307" data-name="Pfad 307" d="M18.625,14H2.639A.639.639,0,0,0,2,14.639V41.494a.639.639,0,0,0,.639.639H18.625a.639.639,0,0,0,.639-.639V14.639A.639.639,0,0,0,18.625,14Zm-.639,26.855H3.279V15.279H17.985Z" transform="translate(0 -4.327)" fill="#ff6d00"/>
      <path id="Pfad_308" data-name="Pfad 308" d="M6.54,27.18h9.088a.54.54,0,0,0,.54-.54v-8.1a.54.54,0,0,0-.54-.54H6.54a.54.54,0,0,0-.54.54v8.1A.54.54,0,0,0,6.54,27.18Zm.54-7.436L14.208,26.1H7.08Zm8.008,5.691L7.944,19.08h7.144Z" transform="translate(-0.442 -4.77)" fill="#ff6d00"/>
      <path id="Pfad_309" data-name="Pfad 309" d="M51.625,14H35.639a.639.639,0,0,0-.639.639V41.494a.639.639,0,0,0,.639.639H51.625a.639.639,0,0,0,.639-.639V14.639A.639.639,0,0,0,51.625,14Zm-.639,12.692L37.391,15.279H50.985ZM36.279,16.014,49.866,27.427H36.279Zm0,24.841V28.706H50.985V40.855Z" transform="translate(-11.9 -4.327)" fill="#ff6d00"/>
      <path id="Pfad_310" data-name="Pfad 310" d="M13.927,8.394a1.918,1.918,0,0,0,.639-3.721V3.279H34.387v3.28L33.46,5.92l-.7,1.061L34.675,8.26a.639.639,0,0,0,.639.032l.051-.032h0l1.918-1.279-.7-1.061-.914.639V2.639A.639.639,0,0,0,35.027,2h-21.1a.639.639,0,0,0-.639.639V4.673a1.918,1.918,0,0,0,.639,3.721Zm0-2.558a.639.639,0,1,1-.639.639A.639.639,0,0,1,13.927,5.836Z" transform="translate(-3.614)" fill="#ff6d00"/>
      <path id="Pfad_311" data-name="Pfad 311" d="M7.861,40.781h6.406a1.891,1.891,0,0,0,0-3.781H7.861a1.891,1.891,0,0,0,0,3.781Zm0-2.7h6.406a.81.81,0,1,1,0,1.62H7.861a.81.81,0,0,1,0-1.62Z" transform="translate(-0.432 -12.621)" fill="#ff6d00"/>
      <path id="Pfad_313" data-name="Pfad 313" d="M50.829,38H39.409a.639.639,0,0,0-.639.639V48.23a.639.639,0,0,0,.639.639h11.42a.639.639,0,0,0,.639-.639V38.639A.639.639,0,0,0,50.829,38Zm-.639,9.591H40.049V39.279H50.19Z" transform="translate(-13.259 -12.981)" fill="#ff6d00"/>
    </g>
  </g>
</svg>
