<svg xmlns="http://www.w3.org/2000/svg" width="25.733" height="33.896" viewBox="0 0 25.733 33.896">
  <g id="iconfinder_user_testing-usability_testing-test-hand-click-interface-ux_4391118" transform="translate(-14 -10.715)">
    <path id="Pfad_231" data-name="Pfad 231" d="M39.154,29.442A2.144,2.144,0,0,0,36.917,29a.779.779,0,0,0-.057-.107V10.715c.031.082-22.8.082-22.86,0v30.6a.715.715,0,0,0,.715.715H28.768a6.076,6.076,0,0,0,5,2.58,6.012,6.012,0,0,0,5.962-6V30.886a2.03,2.03,0,0,0-.579-1.444Zm-5.318-1.594a2.087,2.087,0,0,0-2.052-.508v-3.36a2.052,2.052,0,0,0-2.223-2.037A2.144,2.144,0,0,0,27.7,24.088V32.98c-.3-.21-7.7-1.807-2.566,3.331l.486.65H15.43V12.291H35.444V27.876a2.08,2.08,0,0,0-1.43.214,1.68,1.68,0,0,0-.179-.243ZM15.43,40.6V38.377H26.7l.808,1.079a2.337,2.337,0,0,1,.415.786c.036.122.079.236.122.357ZM38.3,38.613A4.6,4.6,0,0,1,29.3,39.885a3.753,3.753,0,0,0-.65-1.251l-3.574-4.754a2.087,2.087,0,0,1,2.23.715l.536.715a.715.715,0,0,0,1.287-.429V24.066a.715.715,0,0,1,.558-.715.65.65,0,0,1,.493.179.615.615,0,0,1,.179.436v5.311h0l-.1,5.64h1.43l.1-5.719a.6.6,0,0,1,.6-.572.608.608,0,0,1,.615.615v.522l-.079,5.154h1.43l.079-5.161h0a.622.622,0,0,1,.615-.615.608.608,0,0,1,.615.615v1.1l-.1,4.046h1.43l.1-4.16a.608.608,0,1,1,1.215.05Z" fill="#fff"/>
    <path id="Pfad_232" data-name="Pfad 232" d="M35.47,18.325a.715.715,0,0,0-.715-.715H18.615a.715.715,0,0,0-.715.715v8.142a.715.715,0,0,0,.715.715h6.869v.379a5.154,5.154,0,0,0,1.43,3.574l1.044-.979a3.746,3.746,0,1,1,5.383.057l1.015,1.008a5.118,5.118,0,0,0,1.115-5.468Zm-4.839,4.067a5.175,5.175,0,0,0-4.8,3.36H19.4V19.04H34.04v4.646a5.147,5.147,0,0,0-3.41-1.294Z" transform="translate(-1.112 -4.452)" fill="#fff"/>
  </g>
</svg>
