<svg xmlns="http://www.w3.org/2000/svg" width="44.321" height="42.105" viewBox="0 0 44.321 42.105">
  <g id="iconfinder_target_group-users-focus-target-group-ux_4391151" transform="translate(-2 -3.5)">
    <path id="Pfad_234" data-name="Pfad 234" d="M40.654,28.349a3.886,3.886,0,0,0,.687-2.216,3.945,3.945,0,1,0-7.2,2.216,4.2,4.2,0,0,0-.99.886,5.607,5.607,0,0,0-1.123-.864,4.986,4.986,0,1,0-7.948,0,5.584,5.584,0,0,0-1.219.968,4.307,4.307,0,0,0-1.071-1,3.937,3.937,0,1,0-6.523,0,4.329,4.329,0,0,0-1.965,3.6v3.029h1.477V31.946a2.837,2.837,0,0,1,1.566-2.534l.1.059.244.14.281.133a3.817,3.817,0,0,0,.377.133h.089a3.871,3.871,0,0,0,1.086.17,4.166,4.166,0,0,0,1.093-.17h.066a3.8,3.8,0,0,0,.406-.148l.251-.118c.089-.052.185-.1.266-.155l.1-.052a2.9,2.9,0,0,1,1.234,1.256,5.385,5.385,0,0,0-.569,2.416v4.011h1.477V33.076a4.011,4.011,0,0,1,2.334-3.634c.059.044.126.074.192.118a3.721,3.721,0,0,0,.332.192c.118.059.207.1.318.155a5.223,5.223,0,0,0,.51.2h0a4.646,4.646,0,0,0,2.955,0h0c.177-.059.347-.126.517-.2a2.571,2.571,0,0,0,.318-.155l.332-.192c.066-.044.133-.074.192-.118a4.011,4.011,0,0,1,2.334,3.634v4.011h1.477V33.076a5.444,5.444,0,0,0-.657-2.585,2.859,2.859,0,0,1,1.234-1.071l.1.059.251.14.273.133.377.14h.089a3.871,3.871,0,0,0,1.086.17,3.945,3.945,0,0,0,1.1-.177h.059a3.8,3.8,0,0,0,.406-.148l.251-.118.266-.148.1-.059a2.837,2.837,0,0,1,1.544,2.541v3.029h1.477V31.954a4.314,4.314,0,0,0-1.972-3.6ZM18.493,23.673a2.467,2.467,0,0,1,1.6,4.344h0a2.283,2.283,0,0,1-.739.428,2.556,2.556,0,0,1-2.15-.222,2.039,2.039,0,0,1-.288-.207h0a2.438,2.438,0,0,1-.886-1.876,2.467,2.467,0,0,1,2.489-2.467Zm18.874,0a2.467,2.467,0,0,1,1.6,4.344h0a2.393,2.393,0,0,1-.739.428,2.571,2.571,0,0,1-2.142-.214,2.727,2.727,0,0,1-.3-.214h0a2.438,2.438,0,0,1-.864-1.869A2.467,2.467,0,0,1,37.4,23.673Zm-9.315-1.8a3.5,3.5,0,0,1,2.268,6.168,3.6,3.6,0,0,1-3.472.613,3.368,3.368,0,0,1-1.071-.613,3.5,3.5,0,0,1,2.275-6.168Z" transform="translate(-2.953 -4.409)" fill="#fff"/>
    <path id="Pfad_235" data-name="Pfad 235" d="M46.321,24.183H43.507A19.036,19.036,0,0,0,24.973,5.509V3.5H23.5V5.524A19.043,19.043,0,0,0,5.479,24.109H2v1.477H5.5A19.051,19.051,0,0,0,23.422,43.508v2.1H24.9V43.53A19.043,19.043,0,0,0,43.477,25.661h2.844ZM24.9,42.052V40.139H23.422v1.884A17.566,17.566,0,0,1,6.986,25.587H8.205V24.109H6.957A17.566,17.566,0,0,1,23.5,7V8.671h1.477V6.987a17.559,17.559,0,0,1,17.056,17.2H40.412v1.477h1.581A17.566,17.566,0,0,1,24.9,42.052Z" transform="translate(0 0)" fill="#fff"/>
  </g>
</svg>
