<svg xmlns="http://www.w3.org/2000/svg" width="57.351" height="45.822" viewBox="0 0 57.351 45.822">
  <g id="iconfinder_user_need-want-need-user-heart-love-ux-notes_4391150" transform="translate(-1.85 -10)">
    <path id="Pfad_252" data-name="Pfad 252" d="M58.235,13.384H49.728V10.956A.956.956,0,0,0,48.772,10H32.58a.956.956,0,0,0-.956.956v2.428H28.183a5.735,5.735,0,0,0-3.718-1.357H24.36a5.009,5.009,0,0,0-3.173-1.912,4.951,4.951,0,0,0-.956-.1H18.778c-6.691,0-12.149,5-12.149,11.135a.631.631,0,0,0,0,.134l.554,3.967a3.823,3.823,0,0,0-.554,1.95,3.441,3.441,0,0,0,3.2,3.632,8.6,8.6,0,0,0,2.323,4.32,7.886,7.886,0,0,0,1.166.956v1.606c-2.867.373-11.47,1.959-11.47,7.589v9.558a.956.956,0,0,0,.956.956H32.437a.956.956,0,0,0,.956-.956v-4.4H58.244a.956.956,0,0,0,.956-.956V14.339a.956.956,0,0,0-.965-.956Zm-24.7-1.472H47.873v4.177H33.536ZM27.514,25.57h0a1.137,1.137,0,0,1,.335.143h.057a1.634,1.634,0,0,1,.306.277,1.959,1.959,0,0,1,.373,1.214,1.625,1.625,0,0,1-1.118,1.673ZM18.778,11.912h1.376a3.823,3.823,0,0,1,.631.057,3.183,3.183,0,0,1,2.17,1.482.956.956,0,0,0,.832.487h.621a3.823,3.823,0,0,1,2.867,1.3A5.219,5.219,0,0,1,28.537,19.2h0l-.449,4.569h-.1a1.912,1.912,0,0,0-.325-.057,1.137,1.137,0,0,0-.249-.048v-.573a.956.956,0,0,0-.8-.956,8.832,8.832,0,0,1-4.731-2.705.956.956,0,0,0-.707-.306h0a.956.956,0,0,0-.7.306l-.115.1C18.7,20.8,11.991,22.435,10.959,22.2a.956.956,0,0,0-1.319.879v.573a1.768,1.768,0,0,0-.22,0,2.868,2.868,0,0,0-.411.086H8.894l-.373-2.715C8.579,16.012,13.157,11.912,18.778,11.912ZM8.541,27.2A1.912,1.912,0,0,1,8.952,26a1.147,1.147,0,0,1,.6-.421H9.64v3.326a1.625,1.625,0,0,1-1.1-1.7Zm3.011,2.466V24.079a27.662,27.662,0,0,0,9.558-2.772,10.9,10.9,0,0,0,4.445,2.523v5.286a3.25,3.25,0,0,1,0,.43.124.124,0,0,1,0,.057,7.016,7.016,0,0,1-4.072,5.248c-.277.143-.564.268-.87.392a4.265,4.265,0,0,1-.612.21l-.545.143h-.1a3.25,3.25,0,0,1-.507.076h-.182a4.292,4.292,0,0,1-.487,0A6.767,6.767,0,0,1,15.5,35.1a6.558,6.558,0,0,1-.726-.382h0a6.509,6.509,0,0,1-1.262-.956,6.6,6.6,0,0,1-1.959-4.091Zm8.9,9.616-.124.086a.4.4,0,0,1-.124.067l-.143.057-.22.057H16.484a1.271,1.271,0,0,1-1.243-1.08,1.042,1.042,0,0,1,0-.172V37.127l.573.182h.124a7.646,7.646,0,0,0,2.2.306h.057a4.893,4.893,0,0,0,.64,0,.956.956,0,0,0,.249,0,4.779,4.779,0,0,0,.631-.1h.076c.258-.057.5-.115.736-.191h0l.44-.134V38.5a2.788,2.788,0,0,1-.115.373l-.057.1a.392.392,0,0,1-.048.086h0l-.076.086-.086.1ZM31.443,53.9H27.619V49.122H25.708V53.9H9.458V49.122H7.547V53.9H3.723V45.366c0-3.728,6.6-5.314,9.855-5.735a.43.43,0,0,0,.057.115l.086.162a3.068,3.068,0,0,0,.2.287l.1.134a3.823,3.823,0,0,0,.335.344h0a4.158,4.158,0,0,0,.411.306l.134.067a2.581,2.581,0,0,0,.325.162l.172.067.344.1H15.9a3.164,3.164,0,0,0,.526,0h3.231a3.46,3.46,0,0,0,.478,0,2,2,0,0,0,.43-.105,2.218,2.218,0,0,0,.392-.143,3.2,3.2,0,0,0,1.118-.86h0a2.132,2.132,0,0,0,.306-.459h0a1.233,1.233,0,0,0,.086-.153c2.256.344,8.908,1.711,8.908,5.687ZM57.25,48.549h-23.9V45.366c0-5.573-7.838-7.2-10.514-7.58V36.257a9.2,9.2,0,0,0,4.368-5.42h0A3.441,3.441,0,0,0,30.5,27.2a3.919,3.919,0,0,0-.583-2.036l.573-5.811a7.121,7.121,0,0,0-.774-4.062h1.912v1.749A.956.956,0,0,0,32.58,18H48.829a.956.956,0,0,0,.956-.956V15.3h7.551Z" transform="translate(0)" fill="#fff"/>
    <path id="Pfad_253" data-name="Pfad 253" d="M46.558,25.914l-.784.726-.736-.784a5.644,5.644,0,0,0-8.278,7.675l7.809,8.325a.956.956,0,0,0,1.338.057l8.373-7.761a5.735,5.735,0,0,0,1.759-3.928,5.613,5.613,0,0,0-9.482-4.311Zm7.57,4.234a3.756,3.756,0,0,1-1.2,2.619l-7.647,7.121-7.121-7.647A3.756,3.756,0,0,1,40.9,25.914h.143A3.718,3.718,0,0,1,43.614,27.1l1.376,1.472a.956.956,0,0,0,.66.306.889.889,0,0,0,.669-.258L47.8,27.252a3.756,3.756,0,0,1,6.308,2.867Z" transform="translate(-1.475 -0.621)" fill="#fff"/>
    <rect id="Rechteck_395" data-name="Rechteck 395" width="17.931" height="1.912" transform="translate(35.314 43.913)" fill="#fff"/>
  </g>
</svg>
