<svg xmlns="http://www.w3.org/2000/svg" width="47.849" height="42.833" viewBox="0 0 47.849 42.833">
  <g id="iconfinder_user_research-research-user-search-data-analytic-ux_4391116" transform="translate(-2 -8.04)">
    <path id="Pfad_17" data-name="Pfad 17" d="M30.8,30.673V35.1h1.595V30.673A6.005,6.005,0,0,0,29.4,25.482a5.487,5.487,0,1,0-8.725,0,6.013,6.013,0,0,0-3,5.192V35.1h1.595V30.673a4.426,4.426,0,0,1,2.6-4.035l.215.128c.12.08.247.152.367.215a3.3,3.3,0,0,0,.343.16,5.759,5.759,0,0,0,.574.231h0a5.16,5.16,0,0,0,3.3,0h0a5.2,5.2,0,0,0,.582-.231,3.19,3.19,0,0,0,.335-.159,3.389,3.389,0,0,0,.367-.215l.223-.128A4.418,4.418,0,0,1,30.8,30.673Zm-3.238-5.582a3.987,3.987,0,0,1-3.86.67,3.772,3.772,0,0,1-1.18-.67,3.884,3.884,0,1,1,5.04,0Z" transform="translate(-3.175 -1.747)" fill="#fff"/>
    <path id="Pfad_18" data-name="Pfad 18" d="M10.633,34.022A15.277,15.277,0,0,1,28.066,10.528l.542-1.5A16.883,16.883,0,0,0,9.357,34.979Z" transform="translate(-0.817 0)" fill="#fff"/>
    <path id="Pfad_19" data-name="Pfad 19" d="M44.112,42.46l-.973.973-3.19-3.19a16.891,16.891,0,0,0,4.785-11.795,17.258,17.258,0,0,0-.207-2.648l-1.595.255a14.969,14.969,0,0,1,.191,2.392A15.3,15.3,0,0,1,30.81,43.5l.3,1.595A16.676,16.676,0,0,0,38.8,41.407l3.19,3.19-.973.973a2.217,2.217,0,0,0,0,3.126l5.766,5.774,1.132-1.132-5.79-5.8a.638.638,0,0,1,0-.845l3.11-3.11a.622.622,0,0,1,.877,0L52.725,50.2l1.132-1.116-6.619-6.619a2.217,2.217,0,0,0-3.126-.008Z" transform="translate(-5.834 -3.597)" fill="#fff"/>
    <path id="Pfad_20" data-name="Pfad 20" d="M55.937,10H36.8a.8.8,0,0,0-.8.8v9.57a.8.8,0,0,0,.8.8h19.14a.8.8,0,0,0,.8-.8V10.8A.8.8,0,0,0,55.937,10Zm-.8,9.57H37.595V11.595H55.14Z" transform="translate(-6.885 -0.397)" fill="#fff"/>
    <rect id="Rechteck_382" data-name="Rechteck 382" width="14.355" height="1.595" transform="translate(32.305 12.793)" fill="#fff"/>
    <rect id="Rechteck_383" data-name="Rechteck 383" width="7.975" height="1.595" transform="translate(32.305 15.983)" fill="#fff"/>
    <rect id="Rechteck_384" data-name="Rechteck 384" width="4.785" height="1.595" transform="translate(41.874 15.983)" fill="#fff"/>
    <path id="Pfad_21" data-name="Pfad 21" d="M21.937,43H2.8a.8.8,0,0,0-.8.8v9.57a.8.8,0,0,0,.8.8h19.14a.8.8,0,0,0,.8-.8V43.8A.8.8,0,0,0,21.937,43Zm-.8,9.57H3.595V44.595H21.14Z" transform="translate(0 -7.08)" fill="#fff"/>
    <rect id="Rechteck_385" data-name="Rechteck 385" width="14.355" height="1.595" transform="translate(5.19 39.11)" fill="#fff"/>
    <rect id="Rechteck_386" data-name="Rechteck 386" width="7.975" height="1.595" transform="translate(5.19 42.3)" fill="#fff"/>
    <rect id="Rechteck_387" data-name="Rechteck 387" width="4.785" height="1.595" transform="translate(14.76 42.3)" fill="#fff"/>
  </g>
</svg>
